<?xml version="1.0" encoding="utf-8"?>
<!-- Generator: Adobe Illustrator 17.1.0, SVG Export Plug-In . SVG Version: 6.00 Build 0)  -->
<!DOCTYPE svg PUBLIC "-//W3C//DTD SVG 1.1//EN" "http://www.w3.org/Graphics/SVG/1.1/DTD/svg11.dtd">
<svg version="1.1" id="Layer_1" xmlns="http://www.w3.org/2000/svg" xmlns:xlink="http://www.w3.org/1999/xlink" x="0px" y="0px"
	 viewBox="6.3 0.4 157 229.2" enable-background="new 6.3 0.4 157 229.2" xml:space="preserve">
<rect x="9.8" y="3.9" fill="none" stroke="#FFFFFF" stroke-width="7.0128" stroke-miterlimit="10" width="150" height="222.1"/>
<linearGradient id="SVGID_1_" gradientUnits="userSpaceOnUse" x1="-138.8114" y1="2961.635" x2="-122.1067" y2="2890.6406" gradientTransform="matrix(0.5437 0.2396 0.2396 -0.5437 -546.8311 1747.4653)">
	<stop  offset="0" style="stop-color:#F8F8F8"/>
	<stop  offset="1" style="stop-color:#DCDCDC"/>
</linearGradient>
<polygon fill="url(#SVGID_1_)" points="68.8,156.2 106.5,115.7 85.5,109.9 100.8,77.5 63.1,118.1 84.1,123.8 "/>
<g>
	<path fill="#FFFFFF" d="M61.7,172.7c2.2,0,3.9,0.7,5.4,2.1c0.2,0.2,0.2,0.4,0,0.6l-1.8,1.8c-0.2,0.2-0.4,0.2-0.6,0
		c-0.8-0.7-1.9-1.2-3-1.2c-2.5,0-4.4,2.1-4.4,4.6c0,2.5,1.9,4.6,4.4,4.6c1.1,0,2.2-0.4,3-1.1c0.2-0.1,0.4-0.1,0.6,0l1.8,1.9
		c0.2,0.2,0.1,0.4,0,0.6c-1.5,1.5-3.5,2.2-5.4,2.2c-4.5,0-8.1-3.6-8.1-8.1C53.5,176.3,57.2,172.7,61.7,172.7z"/>
	<path fill="#FFFFFF" d="M76.7,172.7c4.5,0,8.1,3.6,8.1,8.1c0,4.5-3.6,8.1-8.1,8.1c-4.5,0-8.1-3.6-8.1-8.1
		C68.6,176.3,72.2,172.7,76.7,172.7z M76.7,185.3c2.5,0,4.5-2,4.5-4.5c0-2.5-2-4.5-4.5-4.5c-2.4,0-4.5,2.1-4.5,4.5
		C72.2,183.2,74.2,185.3,76.7,185.3z"/>
	<path fill="#FFFFFF" d="M87.5,173.3c0-0.2,0.2-0.4,0.4-0.4h2.7c0.2,0,0.4,0.2,0.4,0.4v14.9c0,0.2-0.2,0.4-0.4,0.4h-2.7
		c-0.2,0-0.4-0.2-0.4-0.4C87.5,188.2,87.5,173.3,87.5,173.3z"/>
	<path fill="#FFFFFF" d="M94.9,173.3c0-0.2,0.2-0.4,0.4-0.4H98c0.2,0,0.4,0.2,0.4,0.4v12h5.4c0.3,0,0.4,0.2,0.4,0.4v2.4
		c0,0.2-0.2,0.4-0.4,0.4h-8.5c-0.3,0-0.4-0.2-0.4-0.4L94.9,173.3L94.9,173.3z"/>
	<path fill="#FFFFFF" d="M105.5,186.5l1.1-1.9c0.2-0.3,0.6-0.3,0.8-0.1c0.1,0,1.7,1.2,3.2,1.2c0.9,0,1.5-0.6,1.5-1.3
		c0-0.9-0.8-1.7-2.3-2.3c-1.9-0.8-4.4-2.3-4.4-5c0-2.2,1.7-4.5,5.2-4.5c2.3,0,4.1,1.2,4.8,1.7c0.3,0.2,0.2,0.6,0.1,0.7l-1.2,1.7
		c-0.2,0.3-0.6,0.4-0.8,0.3c-0.2-0.1-1.9-1.3-3.2-1.3c-0.8,0-1.4,0.5-1.4,1.2c0,0.8,0.7,1.5,2.4,2.2c1.8,0.7,4.6,2.1,4.6,5.1
		c0,2.3-2,4.6-5.3,4.6c-2.9,0-4.6-1.2-5.1-1.7C105.4,186.9,105.4,186.8,105.5,186.5z"/>
</g>
<g>
	<path fill="#FFFFFF" d="M36.9,39.8c0-0.2,0.2-0.4,0.4-0.4h0.4c0.1,0,0.3,0.1,0.4,0.2l5.2,9.7h0l5.2-9.7c0.1-0.1,0.3-0.2,0.4-0.2
		h0.4c0.2,0,0.4,0.2,0.4,0.4l2.5,15.1c0,0.3-0.2,0.5-0.4,0.5h-2.7c-0.2,0-0.4-0.2-0.4-0.4l-1-7h0l-3.8,7.3c-0.1,0.1-0.3,0.3-0.4,0.3
		h-0.4c-0.1,0-0.3-0.1-0.4-0.3l-3.8-7.3h0l-1,7c0,0.2-0.2,0.4-0.4,0.4h-2.7c-0.3,0-0.5-0.2-0.4-0.5L36.9,39.8z"/>
	<path fill="#FFFFFF" d="M53,54.8l7.1-15.1c0.1-0.1,0.2-0.3,0.4-0.3h0.2c0.2,0,0.3,0.1,0.4,0.3l7.1,15.1c0.1,0.3,0,0.6-0.4,0.6h-2.5
		c-0.4,0-0.6-0.1-0.8-0.6l-0.8-1.8h-6.1l-0.8,1.8c-0.1,0.3-0.4,0.5-0.8,0.5h-2.5C53.1,55.4,52.9,55.1,53,54.8z M62.3,50l-1.7-3.7h0
		L58.9,50H62.3z"/>
	<path fill="#FFFFFF" d="M76.3,39.5c1.9,0,3.9,0.8,5.5,2.1c0.2,0.2,0.2,0.4,0,0.6L80,44.1c-0.2,0.2-0.4,0.2-0.6,0
		c-0.9-0.8-1.9-1.1-2.9-1.1c-2.4,0-4.4,2.1-4.4,4.6c0,2.4,2,4.5,4.5,4.5c0.6,0,1.3-0.1,2-0.4v-1.3h-1.4c-0.3,0-0.4-0.2-0.4-0.4v-2.2
		c0-0.3,0.2-0.4,0.4-0.4h4.5c0.2,0,0.4,0.2,0.4,0.4l0,6.1c0,0.1-0.1,0.3-0.2,0.4c0,0-2.3,1.5-5.6,1.5c-4.5,0-8.1-3.6-8.1-8
		C68.2,43.1,71.8,39.5,76.3,39.5z"/>
	<path fill="#FFFFFF" d="M84.7,39.9c0-0.2,0.2-0.4,0.4-0.4h0.6l9,8.6h0v-8c0-0.2,0.2-0.4,0.4-0.4h2.7c0.2,0,0.4,0.2,0.4,0.4v15.1
		c0,0.2-0.2,0.4-0.4,0.4h-0.4c-0.1,0-0.3-0.1-0.3-0.1l-8.9-8.9h0V55c0,0.2-0.2,0.4-0.4,0.4h-2.7c-0.2,0-0.4-0.2-0.4-0.4L84.7,39.9z"
		/>
	<path fill="#FFFFFF" d="M101.2,40.1c0-0.2,0.2-0.4,0.4-0.4h9.3c0.3,0,0.4,0.2,0.4,0.4v2.4c0,0.2-0.2,0.4-0.4,0.4h-6.2v2.8h5.1
		c0.2,0,0.4,0.2,0.4,0.4v2.4c0,0.3-0.2,0.4-0.4,0.4h-5.1v3h6.2c0.3,0,0.4,0.2,0.4,0.4v2.4c0,0.2-0.2,0.4-0.4,0.4h-9.3
		c-0.3,0-0.4-0.2-0.4-0.4L101.2,40.1L101.2,40.1z"/>
	<path fill="#FFFFFF" d="M116.4,43h-3.2c-0.3,0-0.4-0.2-0.4-0.4v-2.4c0-0.2,0.2-0.4,0.4-0.4h10c0.3,0,0.4,0.2,0.4,0.4v2.4
		c0,0.2-0.2,0.4-0.4,0.4H120v12c0,0.2-0.2,0.4-0.4,0.4h-2.7c-0.2,0-0.4-0.2-0.4-0.4L116.4,43L116.4,43z"/>
	<path fill="#FFFFFF" d="M124.9,53.3l1.1-1.9c0.2-0.3,0.6-0.3,0.8-0.1c0.1,0,1.7,1.2,3.2,1.2c0.9,0,1.5-0.6,1.5-1.3
		c0-0.9-0.8-1.7-2.3-2.3c-1.9-0.8-4.4-2.3-4.4-5c0-2.2,1.7-4.5,5.2-4.5c2.3,0,4.1,1.2,4.8,1.7c0.3,0.2,0.2,0.6,0.1,0.7l-1.2,1.7
		c-0.2,0.3-0.6,0.4-0.8,0.3c-0.2-0.1-1.9-1.3-3.2-1.3c-0.8,0-1.4,0.5-1.4,1.2c0,0.8,0.7,1.5,2.4,2.2c1.8,0.7,4.6,2.1,4.6,5.1
		c0,2.3-2,4.6-5.3,4.6c-2.9,0-4.6-1.2-5.1-1.7C124.8,53.7,124.8,53.6,124.9,53.3z"/>
</g>
</svg>
