<?xml version="1.0" encoding="utf-8"?>
<!-- Generator: Adobe Illustrator 17.1.0, SVG Export Plug-In . SVG Version: 6.00 Build 0)  -->
<!DOCTYPE svg PUBLIC "-//W3C//DTD SVG 1.1//EN" "http://www.w3.org/Graphics/SVG/1.1/DTD/svg11.dtd">
<svg version="1.1" xmlns="http://www.w3.org/2000/svg" xmlns:xlink="http://www.w3.org/1999/xlink" x="0px" y="0px"
	 viewBox="0 0 814.5 234" enable-background="new 0 0 814.5 234" xml:space="preserve">
<g id="descr">
</g>
<g id="Aa">
</g>
<g id="_x32_">
</g>
<g id="Layer_3">
</g>
<g id="Layer_4">
</g>
<g id="Layer_5">
</g>
<g id="Layer_6">
</g>
<g id="grid">
</g>
<g id="letters">
</g>
<g id="red_marks">
</g>
<g id="Isolation_Mode">
	<g>
		<path fill="#FFFFFF" d="M589.6,115c0-1.2,0.2-2.3,0.7-3.4c0.4-1.1,1-2,1.8-2.8c0.8-0.8,1.7-1.4,2.7-1.8c1-0.4,2.1-0.7,3.3-0.7
			c1.2,0,2.3,0.2,3.3,0.7c1,0.4,1.9,1.1,2.7,1.8c0.8,0.8,1.4,1.7,1.8,2.7c0.4,1,0.7,2.2,0.7,3.4c0,1.2-0.2,2.3-0.7,3.4
			c-0.4,1.1-1,2-1.8,2.8c-0.8,0.8-1.7,1.4-2.7,1.9c-1,0.4-2.1,0.7-3.3,0.7c-1.2,0-2.3-0.2-3.3-0.7c-1-0.4-1.9-1.1-2.7-1.9
			c-0.8-0.8-1.4-1.7-1.8-2.8C589.9,117.3,589.6,116.2,589.6,115z"/>
		<path fill="#FFFFFF" d="M563.8,100c0-1.2,0.2-2.3,0.7-3.4c0.4-1.1,1-2,1.8-2.8c0.8-0.8,1.7-1.4,2.7-1.8c1-0.4,2.1-0.7,3.3-0.7
			c1.2,0,2.3,0.2,3.3,0.7c1,0.4,1.9,1.1,2.7,1.8c0.8,0.8,1.4,1.7,1.8,2.7c0.4,1,0.7,2.2,0.7,3.4c0,1.2-0.2,2.3-0.7,3.4
			c-0.4,1.1-1,2-1.8,2.8c-0.8,0.8-1.7,1.4-2.7,1.9c-1,0.4-2.1,0.7-3.3,0.7c-1.2,0-2.3-0.2-3.3-0.7c-1-0.4-1.9-1.1-2.7-1.9
			c-0.8-0.8-1.4-1.7-1.8-2.8C564,102.4,563.8,101.2,563.8,100z"/>
		<path fill="#FFFFFF" d="M537.9,128.3c0-1.2,0.2-2.3,0.7-3.4s1-2,1.8-2.8c0.8-0.8,1.7-1.4,2.7-1.8c1-0.4,2.1-0.7,3.3-0.7
			c1.2,0,2.3,0.2,3.3,0.7c1,0.4,1.9,1.1,2.7,1.8c0.8,0.8,1.4,1.7,1.8,2.7c0.4,1,0.7,2.2,0.7,3.4c0,1.2-0.2,2.3-0.7,3.4
			c-0.4,1.1-1,2-1.8,2.8c-0.8,0.8-1.7,1.4-2.7,1.9c-1,0.4-2.1,0.7-3.3,0.7c-1.2,0-2.3-0.2-3.3-0.7c-1-0.4-1.9-1.1-2.7-1.9
			c-0.8-0.8-1.4-1.7-1.8-2.8C538.1,130.6,537.9,129.5,537.9,128.3z"/>
		<g>
			<g>
				<path fill="#FFFFFF" d="M551.4,120v0.2c0,0.6,0.3,1.1,0.7,1.5c0,0,0.1,0.3,0.1,0.3h-1.6V120H551.4z"/>
				<path fill="#FFFFFF" d="M541.4,120v0.2c0,0.6-0.3,1.1-0.7,1.5c0,0-0.1,0.3-0.1,0.3h1.6V120H541.4z"/>
			</g>
			<g>
				<path fill="#FFFFFF" d="M551.4,136.5v-0.2c0-0.6,0.3-1.1,0.7-1.5c0,0,0.1-0.3,0.1-0.3h-1.6v2.1H551.4z"/>
				<path fill="#FFFFFF" d="M541.4,136.5v-0.2c0-0.6-0.3-1.1-0.7-1.5c0,0-0.1-0.3-0.1-0.3h1.6v2.1H541.4z"/>
			</g>
		</g>
		<g>
			<g>
				<path fill="#FFFFFF" d="M577.3,91.8V92c0,0.6,0.3,1.1,0.7,1.5c0,0,0.1,0.3,0.1,0.3h-1.6v-2.1H577.3z"/>
				<path fill="#FFFFFF" d="M567.3,91.8V92c0,0.6-0.3,1.1-0.7,1.5c0,0-0.1,0.3-0.1,0.3h1.6v-2.1H567.3z"/>
			</g>
			<g>
				<path fill="#FFFFFF" d="M577.3,108.3v-0.2c0-0.6,0.3-1.1,0.7-1.5c0,0,0.1-0.3,0.1-0.3h-1.6v2.1H577.3z"/>
				<path fill="#FFFFFF" d="M567.3,108.3v-0.2c0-0.6-0.3-1.1-0.7-1.5c0,0-0.1-0.3-0.1-0.3h1.6v2.1H567.3z"/>
			</g>
		</g>
		<g>
			<g>
				<path fill="#FFFFFF" d="M603.1,106.8v0.2c0,0.6,0.3,1.1,0.7,1.5c0,0,0.1,0.3,0.1,0.3h-1.6v-2.1H603.1z"/>
				<path fill="#FFFFFF" d="M593.2,106.8v0.2c0,0.6-0.3,1.1-0.7,1.5c0,0-0.1,0.3-0.1,0.3h1.6v-2.1H593.2z"/>
			</g>
			<g>
				<path fill="#FFFFFF" d="M603.1,123.3v-0.2c0-0.6,0.3-1.1,0.7-1.5c0,0,0.1-0.3,0.1-0.3h-1.6v2.1H603.1z"/>
				<path fill="#FFFFFF" d="M593.2,123.3v-0.2c0-0.6-0.3-1.1-0.7-1.5c0,0-0.1-0.3-0.1-0.3h1.6v2.1H593.2z"/>
			</g>
		</g>
		<g>
			<g>
				<path fill="#FFFFFF" d="M551.4,90l0,50.6c0,0.2-0.2,0.7-0.6,1.1c-0.4,0.4-0.9,0.6-1.4,0.6l-6,0c-0.5,0-1-0.2-1.4-0.6
					c-0.4-0.4-0.6-0.9-0.6-1.4l0-50.6c0-0.5,0.2-1,0.6-1.4c0.4-0.4,0.9-0.6,1.4-0.6l6,0c0.5,0,1,0.2,1.4,0.6
					C551.2,88.7,551.4,89.2,551.4,90z"/>
			</g>
		</g>
		<g>
			<g>
				<path fill="#FFFFFF" d="M577.3,89.7l0,50.6c0,0.5-0.2,1-0.6,1.4c-0.4,0.4-0.9,0.6-1.4,0.6l-6,0c-0.5,0-1-0.2-1.4-0.6
					c-0.4-0.4-0.6-0.9-0.6-1.4l0-50.6c0-0.5,0.2-1,0.6-1.4c0.4-0.4,0.9-0.6,1.4-0.6l6,0c0.5,0,1,0.2,1.4,0.6
					C577.1,88.7,577.3,89.2,577.3,89.7z"/>
			</g>
		</g>
		<g>
			<g>
				<path fill="#FFFFFF" d="M603.1,89.7l0,50.6c0,0.5-0.2,1-0.6,1.4c-0.4,0.4-0.9,0.6-1.4,0.6l-6,0c-0.5,0-1-0.2-1.4-0.6
					c-0.4-0.4-0.6-0.9-0.6-1.4l0-50.6c0-0.5,0.2-1,0.6-1.4c0.4-0.4,0.9-0.6,1.4-0.6l6,0c0.5,0,1,0.2,1.4,0.6
					C602.9,88.7,603.1,89.2,603.1,89.7z"/>
			</g>
		</g>
	</g>
</g>
<g id="_x3C_Layer_x3E_">
	<g>
		<g>
			<g>
				<g>
					<path fill="#FFFEF9" d="M84.8,88.1l67,0c0.5,0,1,0.2,1.4,0.6c0.4,0.4,0.6,0.9,0.6,1.4v8c0,0.5-0.2,1-0.6,1.4
						c-0.4,0.4-0.9,0.6-1.4,0.6l-67,0c-0.5,0-1-0.2-1.4-0.6c-0.4-0.4-0.6-0.9-0.6-1.4v-8c0-0.5,0.2-1,0.6-1.4
						C83.9,88.3,84.3,88.1,84.8,88.1z"/>
				</g>
			</g>
		</g>
		<g>
			<g>
				<g>
					<path fill="#FFFEF9" d="M84.8,130l67,0c0.5,0,1,0.2,1.4,0.6c0.4,0.4,0.6,0.9,0.6,1.4v8c0,0.5-0.2,1-0.6,1.4
						c-0.4,0.4-0.9,0.6-1.4,0.6l-67,0c-0.5,0-1-0.2-1.4-0.6c-0.4-0.4-0.6-0.9-0.6-1.4v-8c0-0.5,0.2-1,0.6-1.4
						C83.9,130.2,84.3,130,84.8,130z"/>
				</g>
			</g>
		</g>
		<g>
			<g>
				<g>
					<path fill="#FFFEF9" d="M84.8,109l67,0c0.5,0,1,0.2,1.4,0.6c0.4,0.4,0.6,0.9,0.6,1.4v8c0,0.5-0.2,1-0.6,1.4
						c-0.4,0.4-0.9,0.6-1.4,0.6l-67,0c-0.5,0-1-0.2-1.4-0.6c-0.4-0.4-0.6-0.9-0.6-1.4v-8c0-0.5,0.2-1,0.6-1.4
						C83.9,109.2,84.3,109,84.8,109z"/>
				</g>
			</g>
		</g>
	</g>
	<g>
		<g>
			<g>
				<g>
					<g>
						<g>
							<path fill="#FFFEF9" d="M407.8,143.4l37,0c0.5,0,1,0.2,1.4,0.6c0.4,0.4,0.6,0.9,0.6,1.4v3.6c0,0.5-0.2,1-0.6,1.4
								c-0.4,0.4-0.9,0.6-1.4,0.6l-37,0c-0.5,0-1-0.2-1.4-0.6c-0.4-0.4-0.6-0.9-0.6-1.4v-3.6c0-0.5,0.2-1,0.6-1.4
								C406.8,143.6,407.2,143.4,407.8,143.4z"/>
						</g>
					</g>
				</g>
			</g>
		</g>
		<g>
			<path fill="#FFFEF9" d="M464,87.6c-0.4-0.4-0.9-0.6-1.4-0.6l-73,0c-0.5,0-1,0.2-1.4,0.6c-0.4,0.4-0.6,0.9-0.6,1.4v8l0,0l0,31v0v8
				c0,0.6,0.2,1,0.6,1.4c0.4,0.4,0.9,0.6,1.4,0.6h73c0.6,0,1-0.2,1.4-0.6c0.4-0.4,0.6-0.9,0.6-1.4v-8l0,0l0-31v0v-8
				C464.6,88.5,464.4,88,464,87.6z M452.6,124c0,1.1-0.9,2-2,2h-49c-1.1,0-2-0.9-2-2v-23c0-1.1,0.9-2,2-2h49c1.1,0,2,0.9,2,2V124z"
				/>
		</g>
	</g>
	<g>
		<g>
			<g>
				<g>
					<path fill="#FFFEF9" d="M701.8,150.4c-19.5,0-35.3-15.8-35.3-35.3c0-19.5,15.8-35.3,35.3-35.3s35.3,15.8,35.3,35.3
						C737.1,134.5,721.3,150.4,701.8,150.4z M701.8,90.7c-13.4,0-24.3,10.9-24.3,24.3c0,13.4,10.9,24.3,24.3,24.3
						s24.3-10.9,24.3-24.3C726.1,101.6,715.2,90.7,701.8,90.7z"/>
				</g>
			</g>
		</g>
		<g>
			<path fill="#FFFEF9" d="M704.6,122.3l9.1-9.1c0.4-0.4,0.6-0.9,0.6-1.4c0-0.6-0.2-1-0.6-1.4l-2.5-2.5c-0.4-0.4-0.8-0.6-1.4-0.6
				c-0.6,0-1,0.2-1.4,0.6l-4.7,4.7V97.8c0-0.6-0.2-1-0.6-1.4c-0.4-0.4-0.9-0.6-1.4-0.6h-3.6c-0.5,0-1,0.2-1.4,0.6
				c-0.4,0.4-0.6,0.9-0.6,1.4v20.9C696.1,123.2,701.4,125.4,704.6,122.3z"/>
		</g>
	</g>
	<g>
		<g>
			<g>
				<g>
					<g>
						<g>
							<g>
								<path fill="#FFFEF9" d="M252.2,101.6l37,0c0.5,0,1,0.2,1.4,0.6c0.4,0.4,0.6,0.9,0.6,1.4v3.6c0,0.5-0.2,1-0.6,1.4
									c-0.4,0.4-0.9,0.6-1.4,0.6l-37,0c-0.5,0-1-0.2-1.4-0.6c-0.4-0.4-0.6-0.9-0.6-1.4v-3.6c0-0.5,0.2-1,0.6-1.4
									C251.2,101.8,251.7,101.6,252.2,101.6z"/>
							</g>
						</g>
					</g>
				</g>
			</g>
			<g>
				<g>
					<g>
						<g>
							<g>
								<path fill="#FFFEF9" d="M252.2,114.6l37,0c0.5,0,1,0.2,1.4,0.6c0.4,0.4,0.6,0.9,0.6,1.4v3.6c0,0.5-0.2,1-0.6,1.4
									c-0.4,0.4-0.9,0.6-1.4,0.6l-37,0c-0.5,0-1-0.2-1.4-0.6c-0.4-0.4-0.6-0.9-0.6-1.4v-3.6c0-0.5,0.2-1,0.6-1.4
									C251.2,114.8,251.7,114.6,252.2,114.6z"/>
							</g>
						</g>
					</g>
				</g>
			</g>
		</g>
		<g>
			<path fill="#FFFEF9" d="M310.1,145.2l-4.7-9.3c-0.3-0.5-0.4-1-0.3-1.3c0-0.1,0.1-0.2,0.2-0.4c0.1-0.1,0.2-0.3,0.3-0.4
				c0.1-0.1,0.1-0.1,0.2-0.2l0,0c0.8-1.1,1.5-2.3,2.1-3.7c1-2.2,1.6-4.5,1.9-6.8c0.2-1.7,0.4-3.5,0.5-5.4c0.1-1.9,0.1-3.9,0.1-5.9
				c0-2,0-3.9-0.1-5.8c-0.1-1.9-0.2-3.7-0.4-5.4c-0.3-2.4-0.9-4.7-1.9-6.8c-1-2.1-2.3-4-3.9-5.6c-1.6-1.6-3.5-2.9-5.7-3.8
				c-2.2-0.9-4.7-1.4-7.4-1.4h-40c-2.8,0-5.3,0.5-7.5,1.4c-2.2,0.9-4.1,2.2-5.7,3.8c-1.6,1.6-2.9,3.5-3.9,5.6s-1.6,4.4-1.9,6.8
				c-0.2,1.7-0.4,3.5-0.5,5.4c-0.1,1.9-0.2,3.8-0.2,5.8c0,2,0.1,3.9,0.2,5.9s0.3,3.7,0.5,5.3c0.3,2.4,0.9,4.7,1.9,6.8
				c1,2.1,2.3,4,3.9,5.6c1.6,1.6,3.5,2.9,5.7,3.8s4.7,1.4,7.5,1.4H288h2.5c0.6,0,1,0.1,1.2,0.3s14.7,7.8,15.8,8
				c1.1,0.2,2.4-0.4,2.7-1.3C310.4,146.9,310.4,146,310.1,145.2z M299.1,119.3c-0.5,6.1-4.6,10-10.2,10.2
				c-4.9,0.2-11.7,0.3-18.2,0.3c-6.4,0-13.2-0.1-18.2-0.3c-5.6-0.2-9.7-4.1-10.2-10.2c-0.1-1.5-0.3-2.6-0.3-7.5c0-4.8,0.2-6,0.3-7.5
				c0.5-6.1,4.6-10,10.2-10.2c4.9-0.2,11.7-0.3,18.2-0.3c6.4,0,13.2,0.1,18.2,0.3c5.6,0.2,9.7,4.1,10.2,10.2
				c0.1,1.5,0.3,2.6,0.3,7.5C299.4,116.7,299.2,117.8,299.1,119.3z"/>
		</g>
	</g>
</g>
<g id="Layer_1">
</g>
</svg>
