<?xml version="1.0" encoding="utf-8"?>
<!-- Generator: Adobe Illustrator 17.1.0, SVG Export Plug-In . SVG Version: 6.00 Build 0)  -->
<!DOCTYPE svg PUBLIC "-//W3C//DTD SVG 1.1//EN" "http://www.w3.org/Graphics/SVG/1.1/DTD/svg11.dtd">
<svg version="1.1" xmlns="http://www.w3.org/2000/svg" xmlns:xlink="http://www.w3.org/1999/xlink" x="0px" y="0px"
	 viewBox="0 0 738 1080" enable-background="new 0 0 738 1080" xml:space="preserve">
<g id="descr">
</g>
<g id="Aa">
</g>
<g id="_x32_">
</g>
<g id="Layer_3">
</g>
<g id="Layer_4">
</g>
<g id="Layer_5">
</g>
<g id="Layer_6">
</g>
<g id="grid">
</g>
<g id="letters">
</g>
<g id="red_marks">
	<g>
		<g>
			<g>
				<path d="M120.1,179.7l67,0c0.5,0,1,0.2,1.4,0.6c0.4,0.4,0.6,0.9,0.6,1.4l0,8c0,0.5-0.2,1-0.6,1.4c-0.4,0.4-0.9,0.6-1.4,0.6
					l-67,0c-0.5,0-1-0.2-1.4-0.6c-0.4-0.4-0.6-0.9-0.6-1.4l0-8c0-0.5,0.2-1,0.6-1.4C119.2,179.9,119.6,179.7,120.1,179.7z"/>
			</g>
		</g>
		<g>
			<g>
				<path d="M120.1,221.6l67,0c0.5,0,1,0.2,1.4,0.6c0.4,0.4,0.6,0.9,0.6,1.4l0,8c0,0.5-0.2,1-0.6,1.4c-0.4,0.4-0.9,0.6-1.4,0.6
					l-67,0c-0.5,0-1-0.2-1.4-0.6c-0.4-0.4-0.6-0.9-0.6-1.4l0-8c0-0.5,0.2-1,0.6-1.4C119.2,221.8,119.6,221.6,120.1,221.6z"/>
			</g>
		</g>
		<g>
			<g>
				<path d="M120.1,200.6l67,0c0.5,0,1,0.2,1.4,0.6c0.4,0.4,0.6,0.9,0.6,1.4l0,8c0,0.5-0.2,1-0.6,1.4c-0.4,0.4-0.9,0.6-1.4,0.6
					l-67,0c-0.5,0-1-0.2-1.4-0.6c-0.4-0.4-0.6-0.9-0.6-1.4l0-8c0-0.5,0.2-1,0.6-1.4C119.2,200.8,119.6,200.6,120.1,200.6z"/>
			</g>
		</g>
	</g>
	<g>
		<path d="M237.2,232.4v-52.8c0-0.4,0.2-0.8,0.5-1.1c0.3-0.3,0.7-0.5,1.1-0.5h9.5c0.6,0,1.1,0.1,1.4,0.4c0.3,0.3,0.5,0.6,0.6,1
			l11,30.4c0.1,0.3,0.2,0.4,0.4,0.3c0.2-0.1,0.3-0.2,0.3-0.5v-30.1c0-0.4,0.2-0.8,0.5-1.1c0.3-0.3,0.7-0.5,1.1-0.5h8
			c0.4,0,0.8,0.2,1.1,0.5c0.3,0.3,0.5,0.7,0.5,1.1v52.8c0,0.4-0.2,0.8-0.5,1.1c-0.3,0.3-0.7,0.5-1.1,0.5h-9.4
			c-0.7,0-1.2-0.1-1.5-0.4c-0.3-0.3-0.5-0.6-0.6-0.9l-10.9-28.1c-0.1-0.3-0.2-0.4-0.4-0.3c-0.2,0.1-0.3,0.2-0.3,0.5v27.7
			c0,0.4-0.2,0.8-0.5,1.1c-0.3,0.3-0.7,0.5-1.1,0.5h-8c-0.4,0-0.8-0.2-1.1-0.5C237.4,233.2,237.2,232.8,237.2,232.4z"/>
		<path d="M281.8,221.7c0-1.4,0.3-2.8,0.8-4.3s1.4-2.8,2.6-4c1.1-1.2,2.6-2.2,4.3-3c1.7-0.8,3.7-1.2,6-1.2h8.2
			c0.5,0,0.8-0.3,0.8-0.8v-1.3c0-1.6-0.6-2.9-1.8-3.7c-1.2-0.8-2.7-1.2-4.4-1.2c-0.4,0-0.9,0-1.5,0.1s-1.1,0.2-1.7,0.4
			c-0.6,0.2-1.1,0.5-1.5,0.9c-0.4,0.4-0.7,0.9-0.9,1.6c-0.2,0.7-0.4,1.1-0.6,1.3s-0.8,0.2-1.5,0.2h-5.8c-0.4,0-0.8-0.2-1.1-0.5
			c-0.3-0.3-0.5-0.7-0.5-1.1c0-1.6,0.4-3.1,1.1-4.5c0.7-1.4,1.7-2.7,3-3.8c1.3-1.1,2.9-2,4.8-2.7s4.1-1,6.5-1
			c4.8,0,8.7,1.2,11.6,3.7c2.9,2.5,4.4,6.1,4.4,10.8v24.8c0,0.4-0.2,0.8-0.5,1.1c-0.3,0.3-0.7,0.5-1.1,0.5h-4
			c-0.4,0-0.8-0.2-1.1-0.5c-0.3-0.3-0.5-0.7-0.6-1c-0.1-0.4-0.5-0.6-1-0.6c-0.4,0-0.8,0.2-1.3,0.5c-0.5,0.3-1.1,0.7-1.8,1
			c-0.8,0.4-1.7,0.7-2.7,1.1c-1,0.3-2.3,0.5-3.8,0.5c-4.7,0-8.4-1.2-11-3.5C283.1,229.1,281.8,225.9,281.8,221.7z M291.6,221.8
			c0,1.5,0.5,2.6,1.6,3.3c1,0.7,2.3,1,3.7,1c2.3,0,4.2-0.4,5.8-1.2c1.5-0.8,2.3-2.3,2.3-4.4v-1.9c0-0.5-0.3-0.8-0.8-0.8h-8.5
			c-0.9,0-1.5,0.2-2.1,0.5s-0.9,0.7-1.2,1.1c-0.3,0.4-0.5,0.9-0.6,1.3C291.6,221,291.6,221.4,291.6,221.8z"/>
		<path d="M320.6,195.9c-0.1-0.2-0.1-0.3-0.1-0.5c0-0.2,0.1-0.5,0.2-0.7c0.3-0.4,0.7-0.6,1.4-0.6h8c0.8,0,1.2,0.4,1.5,1.2l7.8,22.8
			c0.1,0.3,0.3,0.4,0.5,0.4c0.2,0,0.4-0.1,0.5-0.4l8-22.8c0.3-0.8,0.8-1.2,1.5-1.2h8c0.7,0,1.1,0.2,1.4,0.6c0.2,0.3,0.2,0.5,0.2,0.7
			c0,0.2,0,0.3-0.1,0.5l-13.6,36.9c-0.3,0.8-0.8,1.2-1.5,1.2h-8.5c-0.7,0-1.2-0.4-1.5-1.2L320.6,195.9z"/>
		<path d="M365.6,187.2v-8.6c0-0.3,0.1-0.6,0.4-0.9s0.5-0.4,0.9-0.4h8.6c0.4,0,0.7,0.1,0.9,0.4c0.2,0.3,0.4,0.6,0.4,0.9v8.6
			c0,0.9-0.4,1.3-1.3,1.3h-8.6C366,188.4,365.6,188,365.6,187.2z M366,232.7v-37.4c0-0.3,0.1-0.6,0.4-0.9c0.2-0.3,0.6-0.4,0.9-0.4
			h7.8c0.4,0,0.7,0.1,0.9,0.4c0.2,0.3,0.4,0.6,0.4,0.9v37.4c0,0.3-0.1,0.6-0.4,0.9c-0.2,0.3-0.5,0.4-0.9,0.4h-7.8
			c-0.4,0-0.7-0.1-0.9-0.4C366.1,233.3,366,233.1,366,232.7z"/>
		<path d="M385,217.3c0-1,0-2.1,0-3.2c0-1.1,0-2.2,0-3.2c0-1,0.1-2,0.1-2.8c0.1-2.1,0.6-4,1.4-5.8c0.8-1.8,1.9-3.4,3.3-4.7
			c1.3-1.3,2.9-2.4,4.7-3.2c1.8-0.8,3.7-1.2,5.8-1.2c1.5,0,2.7,0.1,3.6,0.4c0.9,0.3,1.6,0.6,2.2,0.9c0.6,0.3,1.1,0.6,1.6,0.9
			c0.4,0.3,0.9,0.4,1.5,0.4c0.4,0,0.8-0.1,1.1-0.4c0.3-0.3,0.6-0.6,0.9-0.9c0.4-0.4,0.7-0.5,1.1-0.5h4c0.4,0,0.8,0.2,1.1,0.5
			c0.3,0.3,0.5,0.7,0.5,1.1v40.8c0,2-0.4,3.9-1.2,5.7c-0.8,1.8-1.9,3.4-3.3,4.7c-1.4,1.4-3,2.4-5,3.2c-2,0.8-4,1.2-6.3,1.2
			c-2.2,0-4.2-0.3-6.2-1c-1.9-0.6-3.6-1.5-5.1-2.7c-1.5-1.2-2.6-2.6-3.5-4.2c-0.9-1.6-1.3-3.4-1.3-5.3c0-0.4,0.2-0.8,0.5-1.1
			c0.3-0.3,0.7-0.5,1.1-0.5h6.2c1,0,1.6,0.2,1.8,0.5c0.2,0.3,0.3,0.8,0.4,1.4c0.2,1,0.8,1.8,1.8,2.5s2.2,1,3.8,1
			c1.5,0,2.8-0.4,4-1.3c1.2-0.9,1.8-2.2,1.8-4v-0.8c0-1.3-0.4-1.9-1.3-1.9c-0.3,0-0.7,0.1-1.1,0.2c-0.6,0.2-1.2,0.4-1.9,0.6
			c-0.7,0.2-1.6,0.3-2.9,0.3c-2.1,0-4-0.4-5.8-1.2c-1.8-0.8-3.4-1.8-4.7-3.2c-1.3-1.3-2.4-2.9-3.3-4.7c-0.8-1.8-1.3-3.8-1.4-5.8
			C385.1,219.2,385.1,218.3,385,217.3z M395.4,210.8c0,1,0,2.1,0,3.2c0,1.1,0,2.2,0,3.2c0,1,0.1,2,0.1,2.8c0.1,1.3,0.7,2.5,1.6,3.4
			c1,0.9,2.4,1.4,4.4,1.4c2,0,3.5-0.4,4.4-1.3s1.5-2,1.6-3.4c0.1-0.8,0.1-1.7,0.1-2.8c0-1,0-2.1,0-3.2c0-1.1,0-2.2,0-3.2
			c0-1-0.1-2-0.1-2.8c-0.1-1.5-0.7-2.7-1.6-3.5s-2.5-1.2-4.4-1.2c-1.9,0-3.4,0.5-4.4,1.4c-1,0.9-1.5,2-1.6,3.4
			C395.5,208.8,395.5,209.7,395.4,210.8z"/>
		<path d="M426.3,221.7c0-1.4,0.3-2.8,0.8-4.3s1.4-2.8,2.6-4c1.1-1.2,2.6-2.2,4.3-3c1.7-0.8,3.7-1.2,6-1.2h8.2
			c0.5,0,0.8-0.3,0.8-0.8v-1.3c0-1.6-0.6-2.9-1.8-3.7c-1.2-0.8-2.7-1.2-4.4-1.2c-0.4,0-0.9,0-1.5,0.1s-1.1,0.2-1.7,0.4
			c-0.6,0.2-1.1,0.5-1.5,0.9c-0.4,0.4-0.7,0.9-0.9,1.6c-0.2,0.7-0.4,1.1-0.6,1.3s-0.8,0.2-1.5,0.2h-5.8c-0.4,0-0.8-0.2-1.1-0.5
			c-0.3-0.3-0.5-0.7-0.5-1.1c0-1.6,0.4-3.1,1.1-4.5c0.7-1.4,1.7-2.7,3-3.8c1.3-1.1,2.9-2,4.8-2.7s4.1-1,6.5-1
			c4.8,0,8.7,1.2,11.6,3.7c2.9,2.5,4.4,6.1,4.4,10.8v24.8c0,0.4-0.2,0.8-0.5,1.1c-0.3,0.3-0.7,0.5-1.1,0.5h-4
			c-0.4,0-0.8-0.2-1.1-0.5c-0.3-0.3-0.5-0.7-0.6-1c-0.1-0.4-0.5-0.6-1-0.6c-0.4,0-0.8,0.2-1.3,0.5c-0.5,0.3-1.1,0.7-1.8,1
			c-0.8,0.4-1.7,0.7-2.7,1.1c-1,0.3-2.3,0.5-3.8,0.5c-4.7,0-8.4-1.2-11-3.5C427.6,229.1,426.3,225.9,426.3,221.7z M436.1,221.8
			c0,1.5,0.5,2.6,1.6,3.3c1,0.7,2.3,1,3.7,1c2.3,0,4.2-0.4,5.8-1.2c1.5-0.8,2.3-2.3,2.3-4.4v-1.9c0-0.5-0.3-0.8-0.8-0.8h-8.5
			c-0.9,0-1.5,0.2-2.1,0.5s-0.9,0.7-1.2,1.1c-0.3,0.4-0.5,0.9-0.6,1.3C436.1,221,436.1,221.4,436.1,221.8z"/>
		<path d="M464.1,202.3v-6.4c0-0.4,0.2-0.8,0.5-1.1c0.3-0.3,0.7-0.5,1.1-0.5h6.3c0.5,0,0.8-0.3,0.8-0.8v-12.3c0-0.4,0.2-0.8,0.5-1.1
			c0.3-0.3,0.7-0.5,1.1-0.5h7.2c0.4,0,0.8,0.2,1.1,0.5c0.3,0.3,0.5,0.7,0.5,1.1v12.3c0,0.5,0.3,0.8,0.8,0.8h8.8
			c0.4,0,0.8,0.2,1.1,0.5c0.3,0.3,0.5,0.7,0.5,1.1v6.4c0,0.4-0.2,0.8-0.5,1.1c-0.3,0.3-0.7,0.5-1.1,0.5H484c-0.5,0-0.8,0.3-0.8,0.8
			v14.5c0,1.3,0.4,2.4,1.3,3.4c0.9,0.9,2,1.4,3.5,1.4h5.6c0.4,0,0.8,0.2,1.1,0.5c0.3,0.3,0.5,0.7,0.5,1.1v6.9c0,0.4-0.2,0.8-0.5,1.1
			c-0.3,0.3-0.7,0.5-1.1,0.5H488c-4.6,0-8.3-1.3-11-3.9c-2.8-2.6-4.2-6.2-4.2-10.8v-14.6c0-0.5-0.3-0.8-0.8-0.8h-6.3
			c-0.4,0-0.8-0.2-1.1-0.5C464.3,203.1,464.1,202.7,464.1,202.3z"/>
		<path d="M500.8,187.2v-8.6c0-0.3,0.1-0.6,0.4-0.9s0.5-0.4,0.9-0.4h8.6c0.4,0,0.7,0.1,0.9,0.4c0.2,0.3,0.4,0.6,0.4,0.9v8.6
			c0,0.9-0.4,1.3-1.3,1.3h-8.6C501.2,188.4,500.8,188,500.8,187.2z M501.2,232.7v-37.4c0-0.3,0.1-0.6,0.4-0.9
			c0.2-0.3,0.6-0.4,0.9-0.4h7.8c0.4,0,0.7,0.1,0.9,0.4c0.2,0.3,0.4,0.6,0.4,0.9v37.4c0,0.3-0.1,0.6-0.4,0.9
			c-0.2,0.3-0.5,0.4-0.9,0.4h-7.8c-0.4,0-0.7-0.1-0.9-0.4C501.3,233.3,501.2,233.1,501.2,232.7z"/>
		<path d="M520.2,217.3c-0.1-1-0.1-2.1-0.1-3.2c0-1.1,0-2.2,0.1-3.2c0.1-1,0.1-2,0.2-2.8c0.3-2.1,0.8-4,1.6-5.8
			c0.8-1.8,1.9-3.4,3.3-4.7s3-2.4,5-3.2c1.9-0.8,4.1-1.2,6.5-1.2c2.4,0,4.6,0.4,6.6,1.2c2,0.8,3.6,1.8,5,3.2s2.5,2.9,3.4,4.7
			c0.9,1.8,1.4,3.8,1.7,5.8c0.1,0.8,0.2,1.7,0.2,2.8c0.1,1,0.1,2.1,0.1,3.2c0,1.1,0,2.2-0.1,3.2c-0.1,1-0.1,2-0.2,2.8
			c-0.3,2.1-0.8,4-1.6,5.8s-2,3.4-3.4,4.7c-1.4,1.3-3.1,2.4-5,3.2s-4.1,1.2-6.6,1.2c-2.4,0-4.6-0.4-6.5-1.2c-1.9-0.8-3.6-1.8-5-3.2
			s-2.5-2.9-3.3-4.7c-0.8-1.8-1.4-3.8-1.6-5.8C520.3,219.2,520.2,218.3,520.2,217.3z M530.4,210.8c-0.1,1-0.1,2.1-0.1,3.2
			c0,1.1,0,2.2,0.1,3.2c0.1,1,0.2,2,0.3,2.8c0.2,1.4,0.8,2.5,1.7,3.3c0.9,0.8,2.4,1.2,4.5,1.2c2,0,3.5-0.4,4.5-1.2s1.6-1.9,1.8-3.2
			c0.1-0.8,0.2-1.7,0.2-2.8c0.1-1,0.1-2.1,0.1-3.2c0-1.1,0-2.2-0.1-3.2c-0.1-1-0.1-2-0.2-2.8c-0.2-1.3-0.8-2.4-1.8-3.2
			c-1-0.8-2.5-1.2-4.5-1.2c-2,0-3.5,0.4-4.4,1.1c-0.9,0.7-1.5,1.8-1.8,3.4C530.5,208.8,530.5,209.7,530.4,210.8z"/>
		<path d="M562.1,232.4v-36.8c0-0.4,0.2-0.8,0.5-1.1c0.3-0.3,0.7-0.5,1.1-0.5h4c0.6,0,1.1,0.2,1.4,0.5c0.3,0.3,0.6,0.6,0.9,0.9
			c0.3,0.3,0.7,0.5,1.3,0.5c0.6,0,1.2-0.1,1.7-0.4c0.5-0.3,1.1-0.6,1.8-1c0.7-0.4,1.4-0.7,2.2-1c0.8-0.3,1.9-0.4,3.1-0.4
			c2.1,0,4,0.4,5.8,1.2c1.8,0.8,3.4,1.8,4.7,3.2c1.3,1.3,2.4,2.9,3.1,4.7c0.8,1.8,1.1,3.8,1.1,5.8v24.4c0,0.4-0.2,0.8-0.5,1.1
			c-0.3,0.3-0.7,0.5-1.1,0.5H586c-0.4,0-0.8-0.2-1.1-0.5c-0.3-0.3-0.5-0.7-0.5-1.1v-24.5c0-1.3-0.5-2.4-1.6-3.3
			c-1-0.9-2.5-1.3-4.4-1.3c-1.9,0-3.3,0.4-4.4,1.3c-1.1,0.8-1.6,1.9-1.6,3.1v24.8c0,0.4-0.2,0.8-0.5,1.1c-0.3,0.3-0.7,0.5-1.1,0.5
			h-7.2c-0.4,0-0.8-0.2-1.1-0.5C562.2,233.2,562.1,232.8,562.1,232.4z"/>
	</g>
</g>
<g id="Isolation_Mode">
	<g>
		<path d="M233.8,515.6c0-0.1,0-0.2,0-0.4c0-0.3,0.1-0.6,0.3-0.8c0.3-0.3,0.7-0.5,1.4-0.5h8c0.9,0,1.4,0.4,1.5,1.2l6.6,35.2
			c0.1,0.4,0.2,0.6,0.5,0.6h0.5c0.3,0,0.5-0.2,0.5-0.6l5.3-35.2c0.2-0.8,0.7-1.2,1.5-1.2h7.2c0.9,0,1.4,0.4,1.5,1.2l5.4,35.2
			c0.1,0.4,0.2,0.6,0.6,0.6h0.5c0.3,0,0.5-0.2,0.5-0.6l6.6-35.2c0.2-0.8,0.7-1.2,1.5-1.2h8c0.6,0,1.1,0.2,1.4,0.5
			c0.2,0.2,0.3,0.5,0.3,0.8c0,0.1,0,0.2,0,0.3l-10.8,53.2c-0.2,0.8-0.7,1.2-1.5,1.2H270c-0.9,0-1.4-0.4-1.5-1.2l-4.4-26
			c-0.1-0.3-0.2-0.5-0.5-0.5c-0.3,0-0.4,0.2-0.5,0.5l-4.4,26c-0.2,0.8-0.7,1.2-1.5,1.2h-11.1c-0.9,0-1.4-0.4-1.5-1.2L233.8,515.6z"
			/>
		<path d="M294.3,553.3c-0.1-1-0.1-2.1-0.1-3.2c0-1.1,0-2.2,0.1-3.2c0.1-1,0.1-2,0.2-2.8c0.3-2.1,0.8-4,1.6-5.8
			c0.8-1.8,1.9-3.4,3.3-4.7s3.1-2.4,5-3.2c1.9-0.8,4.1-1.2,6.5-1.2c2.4,0,4.6,0.4,6.6,1.1c2,0.7,3.7,1.7,5.2,3.1
			c1.4,1.4,2.6,3,3.4,5c0.8,2,1.2,4.2,1.2,6.8v6.6c0,0.4-0.2,0.8-0.5,1.1c-0.3,0.3-0.7,0.5-1.1,0.5h-20.6c-0.8,0-1.2,0.4-1.2,1.2
			c0,2.3,0.7,4,2.1,5.1s3,1.7,5,1.7c1.5,0,2.8-0.2,3.9-0.7c1.1-0.5,1.9-1.4,2.4-2.7c0.4-0.9,1-1.4,1.8-1.4h6.6
			c0.4,0,0.8,0.1,1.1,0.4c0.3,0.3,0.4,0.7,0.3,1.4c-0.9,3.7-2.7,6.8-5.4,9.1s-6.3,3.5-10.8,3.5c-2.4,0-4.6-0.4-6.5-1.2
			c-1.9-0.8-3.6-1.8-5-3.2s-2.5-2.9-3.3-4.7s-1.4-3.8-1.6-5.8C294.4,555.2,294.3,554.3,294.3,553.3z M304,543.6
			c0,0.5,0.3,0.7,0.8,0.7H317c0.5,0,0.8-0.2,0.8-0.7c0-0.9-0.2-1.6-0.5-2.2s-0.9-1.2-1.5-1.5s-1.4-0.7-2.2-0.9
			c-0.8-0.2-1.7-0.3-2.5-0.3c-2.3,0-4,0.5-5.2,1.4C304.6,540.9,304,542.1,304,543.6z"/>
		<path d="M334.3,568.4v-53.6c0-0.4,0.2-0.8,0.5-1.1c0.3-0.3,0.7-0.5,1.1-0.5h7.2c0.4,0,0.8,0.2,1.1,0.5c0.3,0.3,0.5,0.7,0.5,1.1
			v13.6c0,0.9,0.3,1.5,0.8,1.7s1.1,0.2,1.7,0c0.6-0.3,1.2-0.5,1.9-0.7c0.7-0.2,1.6-0.3,2.9-0.3c2.1,0,4,0.4,5.8,1.2
			c1.8,0.8,3.3,1.8,4.7,3.2c1.3,1.3,2.4,2.9,3.2,4.7c0.8,1.8,1.3,3.8,1.5,5.8c0.1,0.8,0.1,1.7,0.1,2.8c0,1,0,2.1,0,3.2
			c0,1.1,0,2.2,0,3.2s-0.1,2-0.1,2.8c-0.2,2.1-0.7,4-1.5,5.8c-0.8,1.8-1.9,3.4-3.2,4.7c-1.3,1.3-2.9,2.4-4.7,3.2
			c-1.8,0.8-3.7,1.2-5.8,1.2c-1.5,0-2.7-0.2-3.6-0.4s-1.6-0.6-2.2-0.9c-0.6-0.3-1.1-0.6-1.6-0.9s-0.9-0.4-1.5-0.4
			c-0.4,0-0.8,0.1-1.1,0.4s-0.6,0.6-0.9,0.9c-0.4,0.4-0.7,0.5-1.1,0.5h-4c-0.4,0-0.8-0.2-1.1-0.5
			C334.4,569.2,334.3,568.8,334.3,568.4z M344.5,546.8c0,1,0,2.1,0,3.2c0,1.1,0,2.2,0,3.2s0.1,2,0.1,2.8c0.1,1.4,0.7,2.5,1.6,3.4
			c1,0.9,2.5,1.3,4.4,1.3c1.9,0,3.4-0.5,4.4-1.4c1-0.9,1.5-2,1.7-3.4c0.1-0.8,0.1-1.7,0.1-2.8c0-1,0-2.1,0-3.2c0-1.1,0-2.2,0-3.2
			c0-1-0.1-2-0.1-2.8c-0.1-1.3-0.7-2.5-1.6-3.4c-1-0.9-2.4-1.4-4.4-1.4c-2,0-3.5,0.4-4.4,1.2c-1,0.8-1.5,2-1.6,3.5
			C344.5,544.8,344.5,545.7,344.5,546.8z"/>
	</g>
	<g>
		<g>
			<g>
				<g>
					<g>
						<path d="M135.3,570.3h37c0.5,0,1,0.2,1.4,0.6c0.4,0.4,0.6,0.9,0.6,1.4v3.6c0,0.5-0.2,1-0.6,1.4c-0.4,0.4-0.9,0.6-1.4,0.6
							l-37,0c-0.5,0-1-0.2-1.4-0.6c-0.4-0.4-0.6-0.9-0.6-1.4l0-3.6c0-0.5,0.2-1,0.6-1.4C134.3,570.5,134.8,570.3,135.3,570.3z"/>
					</g>
				</g>
			</g>
		</g>
		<path d="M191.5,514.6c-0.4-0.4-0.9-0.6-1.4-0.6l-73,0c-0.5,0-1,0.2-1.4,0.6c-0.4,0.4-0.6,0.9-0.6,1.4v8l0,0l0,31v0v8
			c0,0.6,0.2,1,0.6,1.4c0.4,0.4,0.9,0.6,1.4,0.6h73c0.6,0,1-0.2,1.4-0.6c0.4-0.4,0.6-0.9,0.6-1.4v-8l0,0l0-31v0v-8
			C192.1,515.5,191.9,515,191.5,514.6z M180.1,551c0,1.1-0.9,2-2,2h-49c-1.1,0-2-0.9-2-2v-23c0-1.1,0.9-2,2-2h49c1.1,0,2,0.9,2,2
			V551z"/>
	</g>
	<g>
		<path d="M171,710.5c0-1.2,0.2-2.3,0.7-3.4c0.4-1.1,1-2,1.8-2.8c0.8-0.8,1.7-1.4,2.7-1.8c1-0.4,2.1-0.7,3.3-0.7
			c1.2,0,2.3,0.2,3.3,0.7s1.9,1.1,2.7,1.8c0.8,0.8,1.4,1.7,1.8,2.7c0.4,1,0.7,2.2,0.7,3.4c0,1.2-0.2,2.3-0.7,3.4
			c-0.4,1.1-1,2-1.8,2.8c-0.8,0.8-1.7,1.4-2.7,1.9c-1,0.4-2.1,0.7-3.3,0.7c-1.2,0-2.3-0.2-3.3-0.7c-1-0.4-1.9-1.1-2.7-1.9
			c-0.8-0.8-1.4-1.7-1.8-2.8C171.2,712.8,171,711.7,171,710.5z"/>
		<path d="M145.1,695.5c0-1.2,0.2-2.3,0.7-3.4c0.4-1.1,1-2,1.8-2.8c0.8-0.8,1.7-1.4,2.7-1.8c1-0.4,2.1-0.7,3.3-0.7
			c1.2,0,2.3,0.2,3.3,0.7c1,0.4,1.9,1.1,2.7,1.8c0.8,0.8,1.4,1.7,1.8,2.7c0.4,1,0.7,2.2,0.7,3.4c0,1.2-0.2,2.3-0.7,3.4
			c-0.4,1.1-1,2-1.8,2.8c-0.8,0.8-1.7,1.4-2.7,1.9c-1,0.4-2.1,0.7-3.3,0.7c-1.2,0-2.3-0.2-3.3-0.7c-1-0.4-1.9-1.1-2.7-1.9
			c-0.8-0.8-1.4-1.7-1.8-2.8C145.4,697.9,145.1,696.7,145.1,695.5z"/>
		<path d="M119.3,723.8c0-1.2,0.2-2.3,0.7-3.4c0.4-1.1,1-2,1.8-2.8c0.8-0.8,1.7-1.4,2.7-1.8c1-0.4,2.1-0.7,3.3-0.7
			c1.2,0,2.3,0.2,3.3,0.7c1,0.4,1.9,1.1,2.7,1.8c0.8,0.8,1.4,1.7,1.8,2.7c0.4,1,0.7,2.2,0.7,3.4c0,1.2-0.2,2.3-0.7,3.4
			c-0.4,1.1-1,2-1.8,2.8c-0.8,0.8-1.7,1.4-2.7,1.9c-1,0.4-2.1,0.7-3.3,0.7c-1.2,0-2.3-0.2-3.3-0.7c-1-0.4-1.9-1.1-2.7-1.9
			c-0.8-0.8-1.4-1.7-1.8-2.8C119.5,726.1,119.3,725,119.3,723.8z"/>
		<g>
			<g>
				<path d="M132.8,715.5v0.2c0,0.6,0.3,1.1,0.7,1.5c0,0,0.1,0.3,0.1,0.3H132v-2.1H132.8z"/>
				<path d="M122.8,715.5v0.2c0,0.6-0.3,1.1-0.7,1.5c0,0-0.1,0.3-0.1,0.3h1.6v-2.1H122.8z"/>
			</g>
			<g>
				<path d="M132.8,732v-0.2c0-0.6,0.3-1.1,0.7-1.5c0,0,0.1-0.3,0.1-0.3H132v2.1H132.8z"/>
				<path d="M122.8,732v-0.2c0-0.6-0.3-1.1-0.7-1.5c0,0-0.1-0.3-0.1-0.3h1.6v2.1H122.8z"/>
			</g>
		</g>
		<g>
			<g>
				<path d="M158.6,687.3v0.2c0,0.6,0.3,1.1,0.7,1.5c0,0,0.1,0.3,0.1,0.3h-1.6v-2.1H158.6z"/>
				<path d="M148.6,687.3v0.2c0,0.6-0.3,1.1-0.7,1.5c0,0-0.1,0.3-0.1,0.3h1.6v-2.1H148.6z"/>
			</g>
			<g>
				<path d="M158.6,703.8v-0.2c0-0.6,0.3-1.1,0.7-1.5c0,0,0.1-0.3,0.1-0.3h-1.6v2.1H158.6z"/>
				<path d="M148.6,703.8v-0.2c0-0.6-0.3-1.1-0.7-1.5c0,0-0.1-0.3-0.1-0.3h1.6v2.1H148.6z"/>
			</g>
		</g>
		<g>
			<g>
				<path d="M184.5,702.3v0.2c0,0.6,0.3,1.1,0.7,1.5c0,0,0.1,0.3,0.1,0.3h-1.6v-2.1H184.5z"/>
				<path d="M174.5,702.3v0.2c0,0.6-0.3,1.1-0.7,1.5c0,0-0.1,0.3-0.1,0.3h1.6v-2.1H174.5z"/>
			</g>
			<g>
				<path d="M184.5,718.8v-0.2c0-0.6,0.3-1.1,0.7-1.5c0,0,0.1-0.3,0.1-0.3h-1.6v2.1H184.5z"/>
				<path d="M174.5,718.8v-0.2c0-0.6-0.3-1.1-0.7-1.5c0,0-0.1-0.3-0.1-0.3h1.6v2.1H174.5z"/>
			</g>
		</g>
		<g>
			<g>
				<path d="M132.8,685.5l0,50.6c0,0.2-0.2,0.7-0.6,1.1c-0.4,0.4-0.9,0.6-1.4,0.6l-6,0c-0.5,0-1-0.2-1.4-0.6
					c-0.4-0.4-0.6-0.9-0.6-1.4l0-50.6c0-0.5,0.2-1,0.6-1.4c0.4-0.4,0.9-0.6,1.4-0.6l6,0c0.5,0,1,0.2,1.4,0.6
					C132.6,684.2,132.8,684.7,132.8,685.5z"/>
			</g>
		</g>
		<g>
			<g>
				<path d="M158.6,685.2l0,50.6c0,0.5-0.2,1-0.6,1.4c-0.4,0.4-0.9,0.6-1.4,0.6l-6,0c-0.5,0-1-0.2-1.4-0.6c-0.4-0.4-0.6-0.9-0.6-1.4
					l0-50.6c0-0.5,0.2-1,0.6-1.4c0.4-0.4,0.9-0.6,1.4-0.6l6,0c0.5,0,1,0.2,1.4,0.6C158.4,684.2,158.6,684.7,158.6,685.2z"/>
			</g>
		</g>
		<g>
			<g>
				<path d="M184.5,685.2l0,50.6c0,0.5-0.2,1-0.6,1.4c-0.4,0.4-0.9,0.6-1.4,0.6l-6,0c-0.5,0-1-0.2-1.4-0.6c-0.4-0.4-0.6-0.9-0.6-1.4
					l0-50.6c0-0.5,0.2-1,0.6-1.4c0.4-0.4,0.9-0.6,1.4-0.6l6,0c0.5,0,1,0.2,1.4,0.6C184.3,684.2,184.5,684.7,184.5,685.2z"/>
			</g>
		</g>
	</g>
	<g>
		<path d="M234.7,721.4V719c0-0.4,0.2-0.8,0.5-1.1s0.7-0.5,1.1-0.5l8,0c0.4,0,0.8,0.2,1.1,0.5c0.3,0.3,0.5,0.7,0.5,1.1v2.4
			c0,1.9,0.7,3.4,2,4.7c1.4,1.2,3.3,1.9,5.8,1.9c2.4,0,4.3-0.6,5.7-1.9c1.4-1.3,2.2-2.8,2.2-4.7c0-1.7-0.6-3-1.9-4s-3.4-1.7-6.4-2.4
			c-2.5-0.5-4.8-1.2-7-2.1c-2.2-0.9-4.1-2-5.7-3.3c-1.6-1.3-2.8-2.9-3.8-4.9c-0.9-1.9-1.4-4.1-1.4-6.7c0-2.3,0.5-4.5,1.4-6.6
			s2.2-3.8,3.8-5.3s3.6-2.7,5.8-3.6c2.2-0.9,4.7-1.3,7.3-1.3c2.6,0,5.1,0.4,7.3,1.3c2.3,0.9,4.2,2.1,5.8,3.6s2.9,3.3,3.8,5.4
			c0.9,2.1,1.4,4.3,1.4,6.6v1.2c0,0.4-0.2,0.8-0.5,1.1c-0.3,0.3-0.7,0.5-1.1,0.5h-8c-0.4,0-0.8-0.2-1.1-0.5s-0.5-0.7-0.5-1.1V698
			c0-1.6-0.6-3-1.8-4.2c-1.2-1.2-3-1.8-5.3-1.8c-2.2,0-3.9,0.5-5.1,1.6c-1.2,1.1-1.8,2.4-1.8,4c0,1.5,0.7,2.8,2,3.7
			c1.3,0.9,3,1.6,5.1,2c2.8,0.6,5.3,1.3,7.7,2.2c2.4,0.9,4.4,2,6.1,3.4c1.7,1.4,3,3.1,4,5.2c1,2,1.5,4.4,1.5,7.2
			c0,2.6-0.5,5-1.4,7.1c-1,2.1-2.3,4-4,5.5c-1.7,1.5-3.8,2.8-6.2,3.6c-2.4,0.9-5,1.3-7.8,1.3c-2.8,0-5.3-0.5-7.6-1.4
			c-2.3-0.9-4.3-2.2-6-3.7c-1.7-1.6-3-3.4-4-5.6C235.2,726.1,234.7,723.8,234.7,721.4z"/>
		<path d="M279.1,721.3c-0.1-1-0.1-2.1-0.1-3.2c0-1.1,0-2.2,0.1-3.2c0.1-1,0.1-2,0.2-2.8c0.3-2.1,0.8-4,1.6-5.8
			c0.8-1.8,1.9-3.4,3.3-4.7s3.1-2.4,5-3.2c1.9-0.8,4.1-1.2,6.5-1.2c2.4,0,4.6,0.4,6.6,1.1s3.7,1.7,5.2,3.1c1.4,1.4,2.6,3,3.4,5
			s1.2,4.2,1.2,6.8v6.6c0,0.4-0.2,0.8-0.5,1.1c-0.3,0.3-0.7,0.5-1.1,0.5H290c-0.8,0-1.2,0.4-1.2,1.2c0,2.3,0.7,4,2.1,5.1
			c1.4,1.2,3,1.7,5,1.7c1.5,0,2.8-0.2,3.9-0.7c1.1-0.5,1.9-1.4,2.4-2.7c0.4-0.9,1-1.4,1.8-1.4h6.6c0.4,0,0.8,0.1,1.1,0.4
			c0.3,0.3,0.4,0.7,0.3,1.4c-0.9,3.7-2.7,6.8-5.4,9.1c-2.7,2.4-6.3,3.5-10.8,3.5c-2.4,0-4.6-0.4-6.5-1.2c-1.9-0.8-3.6-1.8-5-3.2
			s-2.5-2.9-3.3-4.7c-0.8-1.8-1.4-3.8-1.6-5.8C279.2,723.2,279.2,722.3,279.1,721.3z M288.9,711.6c0,0.5,0.3,0.7,0.8,0.7h12.2
			c0.5,0,0.8-0.2,0.8-0.7c0-0.9-0.2-1.6-0.5-2.2s-0.9-1.2-1.5-1.5c-0.7-0.4-1.4-0.7-2.2-0.9c-0.8-0.2-1.7-0.3-2.5-0.3
			c-2.3,0-4,0.5-5.2,1.4C289.5,708.9,288.9,710.1,288.9,711.6z"/>
		<path d="M314,706.3v-6.4c0-0.4,0.2-0.8,0.5-1.1c0.3-0.3,0.7-0.5,1.1-0.5h6.3c0.5,0,0.8-0.3,0.8-0.8v-12.3c0-0.4,0.2-0.8,0.5-1.1
			c0.3-0.3,0.7-0.5,1.1-0.5h7.2c0.4,0,0.8,0.2,1.1,0.5c0.3,0.3,0.5,0.7,0.5,1.1v12.3c0,0.5,0.3,0.8,0.8,0.8h8.8
			c0.4,0,0.8,0.2,1.1,0.5c0.3,0.3,0.5,0.7,0.5,1.1v6.4c0,0.4-0.2,0.8-0.5,1.1c-0.3,0.3-0.7,0.5-1.1,0.5h-8.8c-0.5,0-0.8,0.3-0.8,0.8
			v14.5c0,1.3,0.4,2.4,1.3,3.4c0.9,0.9,2,1.4,3.5,1.4h5.6c0.4,0,0.8,0.2,1.1,0.5c0.3,0.3,0.5,0.7,0.5,1.1v6.9c0,0.4-0.2,0.8-0.5,1.1
			c-0.3,0.3-0.7,0.5-1.1,0.5h-5.6c-4.6,0-8.3-1.3-11-3.9c-2.8-2.6-4.2-6.2-4.2-10.8v-14.6c0-0.5-0.3-0.8-0.8-0.8h-6.3
			c-0.4,0-0.8-0.2-1.1-0.5C314.1,707.1,314,706.7,314,706.3z"/>
		<path d="M346.2,706.3v-6.4c0-0.4,0.2-0.8,0.5-1.1c0.3-0.3,0.7-0.5,1.1-0.5h6.3c0.5,0,0.8-0.3,0.8-0.8v-12.3c0-0.4,0.2-0.8,0.5-1.1
			c0.3-0.3,0.7-0.5,1.1-0.5h7.2c0.4,0,0.8,0.2,1.1,0.5c0.3,0.3,0.5,0.7,0.5,1.1v12.3c0,0.5,0.3,0.8,0.8,0.8h8.8
			c0.4,0,0.8,0.2,1.1,0.5c0.3,0.3,0.5,0.7,0.5,1.1v6.4c0,0.4-0.2,0.8-0.5,1.1c-0.3,0.3-0.7,0.5-1.1,0.5H366c-0.5,0-0.8,0.3-0.8,0.8
			v14.5c0,1.3,0.4,2.4,1.3,3.4c0.9,0.9,2,1.4,3.5,1.4h5.6c0.4,0,0.8,0.2,1.1,0.5c0.3,0.3,0.5,0.7,0.5,1.1v6.9c0,0.4-0.2,0.8-0.5,1.1
			c-0.3,0.3-0.7,0.5-1.1,0.5h-5.6c-4.6,0-8.3-1.3-11-3.9c-2.8-2.6-4.2-6.2-4.2-10.8v-14.6c0-0.5-0.3-0.8-0.8-0.8h-6.3
			c-0.4,0-0.8-0.2-1.1-0.5C346.3,707.1,346.2,706.7,346.2,706.3z"/>
		<path d="M382.8,691.2v-8.6c0-0.3,0.1-0.6,0.4-0.9s0.5-0.4,0.9-0.4h8.6c0.4,0,0.7,0.1,0.9,0.4c0.2,0.3,0.4,0.6,0.4,0.9v8.6
			c0,0.9-0.4,1.3-1.3,1.3h-8.6C383.3,692.4,382.8,692,382.8,691.2z M383.2,736.7v-37.4c0-0.3,0.1-0.6,0.4-0.9
			c0.2-0.3,0.6-0.4,0.9-0.4h7.8c0.4,0,0.7,0.1,0.9,0.4c0.2,0.3,0.4,0.6,0.4,0.9v37.4c0,0.3-0.1,0.6-0.4,0.9
			c-0.2,0.3-0.5,0.4-0.9,0.4h-7.8c-0.4,0-0.7-0.1-0.9-0.4C383.3,737.3,383.2,737.1,383.2,736.7z"/>
		<path d="M403.6,736.4v-36.8c0-0.4,0.2-0.8,0.5-1.1c0.3-0.3,0.7-0.5,1.1-0.5h4c0.6,0,1.1,0.2,1.4,0.5c0.3,0.3,0.6,0.6,0.9,0.9
			c0.3,0.3,0.7,0.5,1.3,0.5c0.6,0,1.2-0.1,1.7-0.4c0.5-0.3,1.1-0.6,1.8-1c0.7-0.4,1.4-0.7,2.2-1c0.8-0.3,1.9-0.4,3.1-0.4
			c2.1,0,4,0.4,5.8,1.2c1.8,0.8,3.4,1.8,4.7,3.2c1.3,1.3,2.4,2.9,3.1,4.7c0.8,1.8,1.1,3.8,1.1,5.8v24.4c0,0.4-0.2,0.8-0.5,1.1
			c-0.3,0.3-0.7,0.5-1.1,0.5h-7.2c-0.4,0-0.8-0.2-1.1-0.5c-0.3-0.3-0.5-0.7-0.5-1.1v-24.5c0-1.3-0.5-2.4-1.6-3.3
			c-1-0.9-2.5-1.3-4.4-1.3c-1.9,0-3.3,0.4-4.4,1.3c-1.1,0.8-1.6,1.9-1.6,3.1v24.8c0,0.4-0.2,0.8-0.5,1.1c-0.3,0.3-0.7,0.5-1.1,0.5
			h-7.2c-0.4,0-0.8-0.2-1.1-0.5C403.8,737.2,403.6,736.8,403.6,736.4z"/>
		<path d="M444.2,721.3c0-1,0-2.1,0-3.2c0-1.1,0-2.2,0-3.2c0-1,0.1-2,0.1-2.8c0.1-2.1,0.6-4,1.4-5.8c0.8-1.8,1.9-3.4,3.3-4.7
			c1.3-1.3,2.9-2.4,4.7-3.2c1.8-0.8,3.7-1.2,5.8-1.2c1.5,0,2.7,0.1,3.6,0.4c0.9,0.3,1.6,0.6,2.2,0.9c0.6,0.3,1.1,0.6,1.6,0.9
			c0.4,0.3,0.9,0.4,1.5,0.4c0.4,0,0.8-0.1,1.1-0.4c0.3-0.3,0.6-0.6,0.9-0.9c0.4-0.4,0.7-0.5,1.1-0.5h4c0.4,0,0.8,0.2,1.1,0.5
			c0.3,0.3,0.5,0.7,0.5,1.1v40.8c0,2-0.4,3.9-1.2,5.7c-0.8,1.8-1.9,3.4-3.3,4.7c-1.4,1.4-3,2.4-5,3.2c-2,0.8-4,1.2-6.3,1.2
			c-2.2,0-4.2-0.3-6.2-1c-1.9-0.6-3.6-1.5-5.1-2.7c-1.5-1.2-2.6-2.6-3.5-4.2c-0.9-1.6-1.3-3.4-1.3-5.3c0-0.4,0.2-0.8,0.5-1.1
			c0.3-0.3,0.7-0.5,1.1-0.5h6.2c1,0,1.6,0.2,1.8,0.5c0.2,0.3,0.3,0.8,0.4,1.4c0.2,1,0.8,1.8,1.8,2.5s2.2,1,3.8,1
			c1.5,0,2.8-0.4,4-1.3c1.2-0.9,1.8-2.2,1.8-4v-0.8c0-1.3-0.4-1.9-1.3-1.9c-0.3,0-0.7,0.1-1.1,0.2c-0.6,0.2-1.2,0.4-1.9,0.6
			c-0.7,0.2-1.6,0.3-2.9,0.3c-2.1,0-4-0.4-5.8-1.2c-1.8-0.8-3.4-1.8-4.7-3.2c-1.3-1.3-2.4-2.9-3.3-4.7c-0.8-1.8-1.3-3.8-1.4-5.8
			C444.3,723.2,444.2,722.3,444.2,721.3z M454.6,714.8c0,1,0,2.1,0,3.2c0,1.1,0,2.2,0,3.2c0,1,0.1,2,0.1,2.8
			c0.1,1.3,0.7,2.5,1.6,3.4c1,0.9,2.4,1.4,4.4,1.4c2,0,3.5-0.4,4.4-1.3s1.5-2,1.6-3.4c0.1-0.8,0.1-1.7,0.1-2.8c0-1,0-2.1,0-3.2
			c0-1.1,0-2.2,0-3.2c0-1-0.1-2-0.1-2.8c-0.1-1.5-0.7-2.7-1.6-3.5s-2.5-1.2-4.4-1.2c-1.9,0-3.4,0.5-4.4,1.4c-1,0.9-1.5,2-1.6,3.4
			C454.7,712.8,454.6,713.7,454.6,714.8z"/>
		<path d="M484.6,724.9c0-0.4,0.2-0.8,0.5-1.1c0.3-0.3,0.7-0.5,1.1-0.5h6.1c1,0,1.6,0.2,1.8,0.5c0.3,0.3,0.5,0.8,0.6,1.5
			c0.2,1.5,0.9,2.6,2.2,3.2c1.3,0.6,2.9,0.9,4.8,0.9c2.2,0,4-0.3,5.3-1c1.4-0.6,2-1.6,2-2.8c0-0.7-0.2-1.3-0.6-1.7
			c-0.4-0.4-1-0.7-1.7-0.9c-0.7-0.1-1.5-0.3-2.4-0.5c-0.9-0.2-1.7-0.4-2.6-0.5c-1.6-0.3-3.4-0.6-5.2-1.1c-1.9-0.5-3.6-1.2-5.2-2.1
			c-1.6-0.9-2.9-2.2-4-3.7s-1.6-3.5-1.6-5.8c0-1.8,0.5-3.4,1.4-4.9s2.2-2.8,3.7-3.8c1.5-1.1,3.2-1.9,5.2-2.5s3.8-0.9,5.8-0.9
			c1.8,0,3.7,0.2,5.5,0.7c1.9,0.5,3.6,1.2,5.1,2.2c1.5,1,2.8,2.4,3.7,4c1,1.7,1.5,3.6,1.5,5.9c0,0.4-0.2,0.8-0.5,1.1
			c-0.3,0.3-0.7,0.5-1.1,0.5h-6c-0.4,0-0.8-0.1-1.2-0.3c-0.4-0.2-0.6-0.8-0.7-1.6c-0.2-1.3-1-2.3-2.3-2.8c-1.3-0.6-2.7-0.8-4.2-0.8
			c-1.8,0-3.4,0.3-4.6,0.8c-1.2,0.5-1.8,1.4-1.8,2.5c0,0.6,0.2,1.1,0.6,1.4s0.9,0.6,1.5,0.8s1.3,0.3,2.1,0.5s1.5,0.3,2.3,0.5
			c1.8,0.4,3.6,0.8,5.6,1.2c2,0.4,3.8,1.1,5.5,2c1.7,0.9,3.1,2.1,4.2,3.7c1.1,1.6,1.7,3.8,1.7,6.5c0,2-0.5,3.8-1.4,5.3
			c-0.9,1.6-2.1,3-3.7,4.1c-1.5,1.1-3.3,2-5.4,2.7c-2.1,0.6-4.2,0.9-6.5,0.9c-2.2,0-4.3-0.3-6.4-0.8c-2.1-0.5-3.9-1.3-5.5-2.4
			c-1.6-1.1-2.9-2.6-3.8-4.4S484.6,727.4,484.6,724.9z"/>
	</g>
	<g>
		<path d="M237.2,904.4v-9.5c0-0.4,0.1-0.8,0.4-1.2l22.1-31.9c0.1-0.2,0.1-0.4,0-0.5c-0.1-0.2-0.2-0.2-0.5-0.2H240
			c-0.4,0-0.8-0.2-1.1-0.5c-0.3-0.3-0.5-0.7-0.5-1.1v-7.8c0-0.4,0.2-0.8,0.5-1.1c0.3-0.3,0.7-0.5,1.1-0.5h31.1
			c0.4,0,0.8,0.2,1.1,0.5c0.3,0.3,0.5,0.7,0.5,1.1v9.3c0,0.4-0.1,0.8-0.4,1.3l-22,32c-0.1,0.2-0.1,0.4,0,0.5s0.2,0.2,0.5,0.2h21.1
			c0.4,0,0.8,0.2,1.1,0.5c0.3,0.3,0.5,0.7,0.5,1.1v7.8c0,0.4-0.2,0.8-0.5,1.1c-0.3,0.3-0.7,0.5-1.1,0.5h-33.1
			c-0.4,0-0.8-0.2-1.1-0.5C237.4,905.2,237.2,904.8,237.2,904.4z"/>
		<path d="M276.4,889.3c-0.1-1-0.1-2.1-0.1-3.2c0-1.1,0-2.2,0.1-3.2c0.1-1,0.1-2,0.2-2.8c0.3-2.1,0.8-4,1.6-5.8
			c0.8-1.8,1.9-3.4,3.3-4.7s3.1-2.4,5-3.2c1.9-0.8,4.1-1.2,6.5-1.2c2.4,0,4.6,0.4,6.6,1.1s3.7,1.7,5.2,3.1c1.4,1.4,2.6,3,3.4,5
			s1.2,4.2,1.2,6.8v6.6c0,0.4-0.2,0.8-0.5,1.1c-0.3,0.3-0.7,0.5-1.1,0.5h-20.6c-0.8,0-1.2,0.4-1.2,1.2c0,2.3,0.7,4,2.1,5.1
			c1.4,1.2,3,1.7,5,1.7c1.5,0,2.8-0.2,3.9-0.7c1.1-0.5,1.9-1.4,2.4-2.7c0.4-0.9,1-1.4,1.8-1.4h6.6c0.4,0,0.8,0.1,1.1,0.4
			c0.3,0.3,0.4,0.7,0.3,1.4c-0.9,3.7-2.7,6.8-5.4,9.1c-2.7,2.4-6.3,3.5-10.8,3.5c-2.4,0-4.6-0.4-6.5-1.2c-1.9-0.8-3.6-1.8-5-3.2
			s-2.5-2.9-3.3-4.7c-0.8-1.8-1.4-3.8-1.6-5.8C276.5,891.2,276.4,890.3,276.4,889.3z M286.1,879.6c0,0.5,0.3,0.7,0.8,0.7h12.2
			c0.5,0,0.8-0.2,0.8-0.7c0-0.9-0.2-1.6-0.5-2.2s-0.9-1.2-1.5-1.5c-0.7-0.4-1.4-0.7-2.2-0.9c-0.8-0.2-1.7-0.3-2.5-0.3
			c-2.3,0-4,0.5-5.2,1.4C286.7,876.9,286.1,878.1,286.1,879.6z"/>
		<path d="M317.6,859.2v-8.6c0-0.3,0.1-0.6,0.4-0.9s0.5-0.4,0.9-0.4h8.6c0.4,0,0.7,0.1,0.9,0.4c0.2,0.3,0.4,0.6,0.4,0.9v8.6
			c0,0.9-0.4,1.3-1.3,1.3h-8.6C318,860.4,317.6,860,317.6,859.2z M318,904.7v-37.4c0-0.3,0.1-0.6,0.4-0.9c0.2-0.3,0.6-0.4,0.9-0.4
			h7.8c0.4,0,0.7,0.1,0.9,0.4c0.2,0.3,0.4,0.6,0.4,0.9v37.4c0,0.3-0.1,0.6-0.4,0.9c-0.2,0.3-0.5,0.4-0.9,0.4h-7.8
			c-0.4,0-0.7-0.1-0.9-0.4C318.1,905.3,318,905.1,318,904.7z"/>
		<path d="M333.9,874.3v-6.4c0-0.4,0.2-0.8,0.5-1.1c0.3-0.3,0.7-0.5,1.1-0.5h6.3c0.5,0,0.8-0.3,0.8-0.8v-12.3c0-0.4,0.2-0.8,0.5-1.1
			c0.3-0.3,0.7-0.5,1.1-0.5h7.2c0.4,0,0.8,0.2,1.1,0.5c0.3,0.3,0.5,0.7,0.5,1.1v12.3c0,0.5,0.3,0.8,0.8,0.8h8.8
			c0.4,0,0.8,0.2,1.1,0.5c0.3,0.3,0.5,0.7,0.5,1.1v6.4c0,0.4-0.2,0.8-0.5,1.1c-0.3,0.3-0.7,0.5-1.1,0.5h-8.8c-0.5,0-0.8,0.3-0.8,0.8
			v14.5c0,1.3,0.4,2.4,1.3,3.4c0.9,0.9,2,1.4,3.5,1.4h5.6c0.4,0,0.8,0.2,1.1,0.5c0.3,0.3,0.5,0.7,0.5,1.1v6.9c0,0.4-0.2,0.8-0.5,1.1
			c-0.3,0.3-0.7,0.5-1.1,0.5h-5.6c-4.6,0-8.3-1.3-11-3.9c-2.8-2.6-4.2-6.2-4.2-10.8v-14.6c0-0.5-0.3-0.8-0.8-0.8h-6.3
			c-0.4,0-0.8-0.2-1.1-0.5C334.1,875.1,333.9,874.7,333.9,874.3z"/>
	</g>
	<g>
		<g>
			<g>
				<g>
					<path d="M153.6,914.3c-19.5,0-35.3-15.8-35.3-35.3s15.8-35.3,35.3-35.3s35.3,15.8,35.3,35.3S173.1,914.3,153.6,914.3z
						 M153.6,854.6c-13.4,0-24.3,10.9-24.3,24.3s10.9,24.3,24.3,24.3s24.3-10.9,24.3-24.3S167.1,854.6,153.6,854.6z"/>
				</g>
			</g>
		</g>
		<path d="M165.6,874.2l-2.5-2.5c-0.4-0.4-0.8-0.6-1.4-0.6c-0.6,0-1,0.2-1.4,0.6l-4.7,4.7v-14.6c0-0.6-0.2-1-0.6-1.4
			c-0.4-0.4-0.9-0.6-1.4-0.6l-3.6,0c-0.5,0-1,0.2-1.4,0.6c-0.4,0.4-0.6,0.9-0.6,1.4v20.9c0,4.5,5.4,6.7,8.5,3.5l9.1-9.1v0v0
			c0.4-0.4,0.6-0.9,0.6-1.4C166.1,875,166,874.6,165.6,874.2z"/>
	</g>
</g>
<g id="_x3C_Layer_x3E_">
	<g>
		<path d="M237.2,400.4v-52.8c0-0.4,0.2-0.8,0.5-1.1c0.3-0.3,0.7-0.5,1.1-0.5h8c0.4,0,0.8,0.2,1.1,0.5c0.3,0.3,0.5,0.7,0.5,1.1V366
			c0,0.3,0.1,0.4,0.3,0.4c0.2,0,0.4,0,0.5-0.2l13.2-19.4c0.1-0.2,0.3-0.3,0.5-0.5c0.2-0.2,0.7-0.3,1.2-0.3h8.1c0.8,0,1.3,0.3,1.6,1
			c0.3,0.7,0.2,1.3-0.2,1.9l-15,22.1c-0.4,0.5-0.5,1-0.5,1.4c0,0.4,0.2,0.8,0.5,1.3L275,399c0.2,0.3,0.3,0.7,0.3,1.1
			c0,0.3-0.1,0.6-0.2,0.9c-0.3,0.7-0.9,1.1-1.8,1.1h-8.6c-0.6,0-1-0.1-1.3-0.3c-0.3-0.2-0.5-0.4-0.6-0.7l-13.7-21.8
			c-0.1-0.2-0.3-0.2-0.5-0.2c-0.2,0-0.3,0.2-0.3,0.4v21c0,0.4-0.2,0.8-0.5,1.1c-0.3,0.3-0.7,0.5-1.1,0.5h-8c-0.4,0-0.8-0.2-1.1-0.5
			C237.4,401.2,237.2,400.8,237.2,400.4z"/>
		<path d="M275.5,385.3c-0.1-1-0.1-2.1-0.1-3.2c0-1.1,0-2.2,0.1-3.2c0.1-1,0.1-2,0.2-2.8c0.3-2.1,0.8-4,1.6-5.8
			c0.8-1.8,1.9-3.4,3.3-4.7s3-2.4,5-3.2c1.9-0.8,4.1-1.2,6.5-1.2c2.4,0,4.6,0.4,6.6,1.2c2,0.8,3.6,1.8,5,3.2s2.5,2.9,3.4,4.7
			c0.9,1.8,1.4,3.8,1.7,5.8c0.1,0.8,0.2,1.7,0.2,2.8c0.1,1,0.1,2.1,0.1,3.2c0,1.1,0,2.2-0.1,3.2c-0.1,1-0.1,2-0.2,2.8
			c-0.3,2.1-0.8,4-1.6,5.8s-2,3.4-3.4,4.7c-1.4,1.3-3.1,2.4-5,3.2s-4.1,1.2-6.6,1.2c-2.4,0-4.6-0.4-6.5-1.2c-1.9-0.8-3.6-1.8-5-3.2
			s-2.5-2.9-3.3-4.7c-0.8-1.8-1.4-3.8-1.6-5.8C275.6,387.2,275.6,386.3,275.5,385.3z M285.7,378.8c-0.1,1-0.1,2.1-0.1,3.2
			c0,1.1,0,2.2,0.1,3.2c0.1,1,0.2,2,0.3,2.8c0.2,1.4,0.8,2.5,1.7,3.3c0.9,0.8,2.4,1.2,4.5,1.2c2,0,3.5-0.4,4.5-1.2s1.6-1.9,1.8-3.2
			c0.1-0.8,0.2-1.7,0.2-2.8c0.1-1,0.1-2.1,0.1-3.2c0-1.1,0-2.2-0.1-3.2c-0.1-1-0.1-2-0.2-2.8c-0.2-1.3-0.8-2.4-1.8-3.2
			c-1-0.8-2.5-1.2-4.5-1.2c-2,0-3.5,0.4-4.4,1.1c-0.9,0.7-1.5,1.8-1.8,3.4C285.9,376.8,285.8,377.7,285.7,378.8z"/>
		<path d="M317.4,400.4v-36.8c0-0.4,0.2-0.8,0.5-1.1c0.3-0.3,0.7-0.5,1.1-0.5h4c0.6,0,1.1,0.2,1.4,0.5c0.3,0.3,0.6,0.6,0.9,1
			c0.3,0.4,0.7,0.5,1.3,0.5c0.6,0,1.2-0.2,1.7-0.5c0.5-0.3,1.1-0.6,1.8-1c0.6-0.4,1.4-0.7,2.1-1c0.8-0.3,1.8-0.5,3-0.5
			c1.9,0,3.4,0.3,4.6,0.9c1.2,0.6,2.3,1.3,3.4,2.1c0.6,0.4,1.2,0.6,1.8,0.6c0.6,0,1.2-0.2,1.9-0.6c1.1-0.8,2.3-1.4,3.7-2
			c1.4-0.6,3-0.9,4.9-0.9c2.1,0,4,0.4,5.8,1.2c1.8,0.8,3.4,1.8,4.7,3.2s2.4,2.9,3.1,4.7c0.8,1.8,1.1,3.8,1.1,5.8v24.4
			c0,0.4-0.2,0.8-0.5,1.1c-0.3,0.3-0.7,0.5-1.1,0.5h-7.2c-0.4,0-0.8-0.2-1.1-0.5c-0.3-0.3-0.5-0.7-0.5-1.1v-24.5
			c0-1.3-0.4-2.4-1.3-3.3c-0.9-0.9-2.2-1.3-3.9-1.3c-1.7,0-3.1,0.5-4.1,1.4c-1,0.9-1.5,2-1.5,3.4v24.4c0,0.4-0.2,0.8-0.5,1.1
			c-0.3,0.3-0.7,0.5-1.1,0.5h-7.2c-0.4,0-0.8-0.2-1.1-0.5c-0.3-0.3-0.5-0.7-0.5-1.1v-24.5c0-1.3-0.4-2.4-1.3-3.3s-2.2-1.3-3.9-1.3
			s-3.1,0.4-4.1,1.3c-1,0.8-1.5,1.9-1.5,3.1v24.8c0,0.4-0.2,0.8-0.5,1.1c-0.3,0.3-0.7,0.5-1.1,0.5H319c-0.4,0-0.8-0.2-1.1-0.5
			C317.6,401.2,317.4,400.8,317.4,400.4z"/>
		<path d="M378.9,400.4v-36.8c0-0.4,0.2-0.8,0.5-1.1c0.3-0.3,0.7-0.5,1.1-0.5h4c0.6,0,1.1,0.2,1.4,0.5c0.3,0.3,0.6,0.6,0.9,1
			c0.3,0.4,0.7,0.5,1.3,0.5c0.6,0,1.2-0.2,1.7-0.5c0.5-0.3,1.1-0.6,1.8-1c0.6-0.4,1.4-0.7,2.1-1c0.8-0.3,1.8-0.5,3-0.5
			c1.9,0,3.4,0.3,4.6,0.9c1.2,0.6,2.3,1.3,3.4,2.1c0.6,0.4,1.2,0.6,1.8,0.6c0.6,0,1.2-0.2,1.9-0.6c1.1-0.8,2.3-1.4,3.7-2
			c1.4-0.6,3-0.9,4.9-0.9c2.1,0,4,0.4,5.8,1.2c1.8,0.8,3.4,1.8,4.7,3.2s2.4,2.9,3.1,4.7c0.8,1.8,1.1,3.8,1.1,5.8v24.4
			c0,0.4-0.2,0.8-0.5,1.1c-0.3,0.3-0.7,0.5-1.1,0.5h-7.2c-0.4,0-0.8-0.2-1.1-0.5c-0.3-0.3-0.5-0.7-0.5-1.1v-24.5
			c0-1.3-0.4-2.4-1.3-3.3c-0.9-0.9-2.2-1.3-3.9-1.3c-1.7,0-3.1,0.5-4.1,1.4c-1,0.9-1.5,2-1.5,3.4v24.4c0,0.4-0.2,0.8-0.5,1.1
			c-0.3,0.3-0.7,0.5-1.1,0.5h-7.2c-0.4,0-0.8-0.2-1.1-0.5c-0.3-0.3-0.5-0.7-0.5-1.1v-24.5c0-1.3-0.4-2.4-1.3-3.3s-2.2-1.3-3.9-1.3
			s-3.1,0.4-4.1,1.3c-1,0.8-1.5,1.9-1.5,3.1v24.8c0,0.4-0.2,0.8-0.5,1.1c-0.3,0.3-0.7,0.5-1.1,0.5h-7.2c-0.4,0-0.8-0.2-1.1-0.5
			C379.1,401.2,378.9,400.8,378.9,400.4z"/>
		<path d="M439.1,385.3c-0.1-1-0.1-2.1-0.1-3.2c0-1.1,0-2.2,0.1-3.2c0.1-1,0.1-2,0.2-2.8c0.3-2.1,0.8-4,1.6-5.8
			c0.8-1.8,1.9-3.4,3.3-4.7s3.1-2.4,5-3.2c1.9-0.8,4.1-1.2,6.5-1.2c2.4,0,4.6,0.4,6.6,1.1s3.7,1.7,5.2,3.1c1.4,1.4,2.6,3,3.4,5
			s1.2,4.2,1.2,6.8v6.6c0,0.4-0.2,0.8-0.5,1.1c-0.3,0.3-0.7,0.5-1.1,0.5H450c-0.8,0-1.2,0.4-1.2,1.2c0,2.3,0.7,4,2.1,5.1
			c1.4,1.2,3,1.7,5,1.7c1.5,0,2.8-0.2,3.9-0.7c1.1-0.5,1.9-1.4,2.4-2.7c0.4-0.9,1-1.4,1.8-1.4h6.6c0.4,0,0.8,0.1,1.1,0.4
			c0.3,0.3,0.4,0.7,0.3,1.4c-0.9,3.7-2.7,6.8-5.4,9.1c-2.7,2.4-6.3,3.5-10.8,3.5c-2.4,0-4.6-0.4-6.5-1.2c-1.9-0.8-3.6-1.8-5-3.2
			s-2.5-2.9-3.3-4.7c-0.8-1.8-1.4-3.8-1.6-5.8C439.2,387.2,439.1,386.3,439.1,385.3z M448.8,375.6c0,0.5,0.3,0.7,0.8,0.7h12.2
			c0.5,0,0.8-0.2,0.8-0.7c0-0.9-0.2-1.6-0.5-2.2s-0.9-1.2-1.5-1.5c-0.7-0.4-1.4-0.7-2.2-0.9c-0.8-0.2-1.7-0.3-2.5-0.3
			c-2.3,0-4,0.5-5.2,1.4C449.4,372.9,448.8,374.1,448.8,375.6z"/>
		<path d="M480.3,400.4v-36.8c0-0.4,0.2-0.8,0.5-1.1c0.3-0.3,0.7-0.5,1.1-0.5h4c0.6,0,1.1,0.2,1.4,0.5c0.3,0.3,0.6,0.6,0.9,0.9
			c0.3,0.3,0.7,0.5,1.3,0.5c0.6,0,1.2-0.1,1.7-0.4c0.5-0.3,1.1-0.6,1.8-1c0.7-0.4,1.4-0.7,2.2-1c0.8-0.3,1.9-0.4,3.1-0.4
			c2.1,0,4,0.4,5.8,1.2c1.8,0.8,3.4,1.8,4.7,3.2c1.3,1.3,2.4,2.9,3.1,4.7c0.8,1.8,1.1,3.8,1.1,5.8v24.4c0,0.4-0.2,0.8-0.5,1.1
			c-0.3,0.3-0.7,0.5-1.1,0.5h-7.2c-0.4,0-0.8-0.2-1.1-0.5c-0.3-0.3-0.5-0.7-0.5-1.1v-24.5c0-1.3-0.5-2.4-1.6-3.3
			c-1-0.9-2.5-1.3-4.4-1.3c-1.9,0-3.3,0.4-4.4,1.3c-1.1,0.8-1.6,1.9-1.6,3.1v24.8c0,0.4-0.2,0.8-0.5,1.1c-0.3,0.3-0.7,0.5-1.1,0.5
			h-7.2c-0.4,0-0.8-0.2-1.1-0.5C480.5,401.2,480.3,400.8,480.3,400.4z"/>
		<path d="M517.8,370.3v-6.4c0-0.4,0.2-0.8,0.5-1.1c0.3-0.3,0.7-0.5,1.1-0.5h6.3c0.5,0,0.8-0.3,0.8-0.8v-12.3c0-0.4,0.2-0.8,0.5-1.1
			c0.3-0.3,0.7-0.5,1.1-0.5h7.2c0.4,0,0.8,0.2,1.1,0.5c0.3,0.3,0.5,0.7,0.5,1.1v12.3c0,0.5,0.3,0.8,0.8,0.8h8.8
			c0.4,0,0.8,0.2,1.1,0.5c0.3,0.3,0.5,0.7,0.5,1.1v6.4c0,0.4-0.2,0.8-0.5,1.1c-0.3,0.3-0.7,0.5-1.1,0.5h-8.8c-0.5,0-0.8,0.3-0.8,0.8
			v14.5c0,1.3,0.4,2.4,1.3,3.4c0.9,0.9,2,1.4,3.5,1.4h5.6c0.4,0,0.8,0.2,1.1,0.5c0.3,0.3,0.5,0.7,0.5,1.1v6.9c0,0.4-0.2,0.8-0.5,1.1
			c-0.3,0.3-0.7,0.5-1.1,0.5h-5.6c-4.6,0-8.3-1.3-11-3.9c-2.8-2.6-4.2-6.2-4.2-10.8v-14.6c0-0.5-0.3-0.8-0.8-0.8h-6.3
			c-0.4,0-0.8-0.2-1.1-0.5C518,371.1,517.8,370.7,517.8,370.3z"/>
		<path d="M553.1,389.7c0-1.4,0.3-2.8,0.8-4.3s1.4-2.8,2.6-4c1.1-1.2,2.6-2.2,4.3-3c1.7-0.8,3.7-1.2,6-1.2h8.2
			c0.5,0,0.8-0.3,0.8-0.8v-1.3c0-1.6-0.6-2.9-1.8-3.7c-1.2-0.8-2.7-1.2-4.4-1.2c-0.4,0-0.9,0-1.5,0.1s-1.1,0.2-1.7,0.4
			c-0.6,0.2-1.1,0.5-1.5,0.9c-0.4,0.4-0.7,0.9-0.9,1.6c-0.2,0.7-0.4,1.1-0.6,1.3s-0.8,0.2-1.5,0.2h-5.8c-0.4,0-0.8-0.2-1.1-0.5
			c-0.3-0.3-0.5-0.7-0.5-1.1c0-1.6,0.4-3.1,1.1-4.5c0.7-1.4,1.7-2.7,3-3.8c1.3-1.1,2.9-2,4.8-2.7s4.1-1,6.5-1
			c4.8,0,8.7,1.2,11.6,3.7c2.9,2.5,4.4,6.1,4.4,10.8v24.8c0,0.4-0.2,0.8-0.5,1.1c-0.3,0.3-0.7,0.5-1.1,0.5h-4
			c-0.4,0-0.8-0.2-1.1-0.5c-0.3-0.3-0.5-0.7-0.6-1c-0.1-0.4-0.5-0.6-1-0.6c-0.4,0-0.8,0.2-1.3,0.5c-0.5,0.3-1.1,0.7-1.8,1
			c-0.8,0.4-1.7,0.7-2.7,1.1c-1,0.3-2.3,0.5-3.8,0.5c-4.7,0-8.4-1.2-11-3.5C554.4,397.1,553.1,393.9,553.1,389.7z M562.8,389.8
			c0,1.5,0.5,2.6,1.6,3.3c1,0.7,2.3,1,3.7,1c2.3,0,4.2-0.4,5.8-1.2c1.5-0.8,2.3-2.3,2.3-4.4v-1.9c0-0.5-0.3-0.8-0.8-0.8h-8.5
			c-0.9,0-1.5,0.2-2.1,0.5s-0.9,0.7-1.2,1.1c-0.3,0.4-0.5,0.9-0.6,1.3C562.9,389,562.8,389.4,562.8,389.8z"/>
		<path d="M595.4,400.4v-36.8c0-0.4,0.2-0.8,0.5-1.1c0.3-0.3,0.7-0.5,1.1-0.5h4c0.3,0,0.6,0.1,1,0.3c0.4,0.2,0.6,0.4,0.7,0.8
			c0.3,0.7,0.5,1.4,0.8,2.2c0.2,0.8,0.7,1.2,1.4,1.2c0.7,0,1.2-0.2,1.7-0.7c0.5-0.5,1.1-1,1.9-1.5s1.8-1.1,3-1.5
			c1.2-0.5,2.8-0.7,4.7-0.7h2.7c0.4,0,0.8,0.2,1.1,0.5c0.3,0.3,0.5,0.7,0.5,1.1v6.4c0,0.4-0.2,0.8-0.5,1.1c-0.3,0.3-0.7,0.5-1.1,0.5
			h-2.8c-3,0-5.5,0.8-7.5,2.4c-1.9,1.6-2.9,4-2.9,7.3v19.1c0,0.4-0.2,0.8-0.5,1.1c-0.3,0.3-0.7,0.5-1.1,0.5H597
			c-0.4,0-0.8-0.2-1.1-0.5C595.5,401.2,595.4,400.8,595.4,400.4z"/>
	</g>
	<g>
		<g>
			<g>
				<g>
					<g>
						<g>
							<path d="M135.1,362.8l37,0c0.5,0,1,0.2,1.4,0.6c0.4,0.4,0.6,0.9,0.6,1.4l0,3.6c0,0.5-0.2,1-0.6,1.4c-0.4,0.4-0.9,0.6-1.4,0.6
								l-37,0c-0.5,0-1-0.2-1.4-0.6c-0.4-0.4-0.6-0.9-0.6-1.4v-3.6c0-0.5,0.2-1,0.6-1.4C134.1,363,134.6,362.8,135.1,362.8z"/>
						</g>
					</g>
				</g>
			</g>
			<g>
				<g>
					<g>
						<g>
							<path d="M135.1,375.8l37,0c0.5,0,1,0.2,1.4,0.6c0.4,0.4,0.6,0.9,0.6,1.4l0,3.6c0,0.5-0.2,1-0.6,1.4c-0.4,0.4-0.9,0.6-1.4,0.6
								l-37,0c-0.5,0-1-0.2-1.4-0.6c-0.4-0.4-0.6-0.9-0.6-1.4v-3.6c0-0.5,0.2-1,0.6-1.4C134.1,376,134.6,375.8,135.1,375.8z"/>
						</g>
					</g>
				</g>
			</g>
		</g>
		<path d="M192.9,406.4l-4.7-9.3c-0.3-0.5-0.4-1-0.3-1.3c0-0.1,0.1-0.2,0.2-0.4c0.1-0.1,0.2-0.3,0.3-0.4c0.1-0.1,0.1-0.1,0.2-0.2
			l0,0c0.8-1.1,1.5-2.3,2.1-3.7c1-2.2,1.6-4.5,1.9-6.8c0.2-1.7,0.4-3.5,0.5-5.4c0.1-1.9,0.1-3.9,0.1-5.9c0-2,0-3.9-0.1-5.8
			c-0.1-1.9-0.2-3.7-0.4-5.4c-0.3-2.4-0.9-4.7-1.9-6.8c-1-2.1-2.3-4-3.9-5.6c-1.6-1.6-3.5-2.9-5.7-3.8c-2.2-0.9-4.7-1.4-7.4-1.4h-40
			c-2.8,0-5.3,0.5-7.5,1.4c-2.2,0.9-4.1,2.2-5.7,3.8c-1.6,1.6-2.9,3.5-3.9,5.6s-1.6,4.4-1.9,6.8c-0.2,1.7-0.4,3.5-0.5,5.4
			c-0.1,1.9-0.2,3.8-0.2,5.8c0,2,0.1,3.9,0.2,5.9s0.3,3.7,0.5,5.3c0.3,2.4,0.9,4.7,1.9,6.8c1,2.1,2.3,4,3.9,5.6
			c1.6,1.6,3.5,2.9,5.7,3.8c2.2,0.9,4.7,1.4,7.5,1.4h37.2h2.5c0.6,0,1,0.1,1.2,0.3s14.7,7.8,15.8,8c1.1,0.2,2.4-0.4,2.7-1.3
			C193.3,408.1,193.3,407.2,192.9,406.4z M182,380.5c-0.5,6.1-4.6,10-10.2,10.2c-4.9,0.2-11.7,0.3-18.2,0.3
			c-6.4,0-13.2-0.1-18.2-0.3c-5.6-0.2-9.7-4.1-10.2-10.2c-0.1-1.5-0.3-2.6-0.3-7.5c0-4.8,0.2-6,0.3-7.5c0.5-6.1,4.6-10,10.2-10.2
			c4.9-0.2,11.7-0.3,18.2-0.3c6.4,0,13.2,0.1,18.2,0.3c5.6,0.2,9.7,4.1,10.2,10.2c0.1,1.5,0.3,2.6,0.3,7.5
			C182.3,377.9,182.1,379,182,380.5z"/>
	</g>
</g>
<g id="Layer_1">
</g>
</svg>
